<svg xmlns="http://www.w3.org/2000/svg" version="1.1" xmlns:xlink="http://www.w3.org/1999/xlink"
    xmlns:svgjs="http://svgjs.dev/svgjs" viewBox="0 0 800 800">
    <defs>
        <linearGradient x1="50%" y1="0%" x2="50%" y2="100%" id="ccchaos-grad">
            <stop stop-color="hsl(206, 75%, 49%)" stop-opacity="1" offset="0%"></stop>
            <stop stop-color="hsl(331, 90%, 56%)" stop-opacity="1" offset="100%"></stop>
        </linearGradient>
    </defs>
    <g stroke-width="2" stroke="url(#ccchaos-grad)" fill="none" stroke-linecap="round">
        <path
            d="M411.48 99.72C421.62 99.96 431.97 101.19 442.5 103.35 453.03 105.94 463.75 109.35 474.57 113.48 485.38 117.84 496.25 122.75 507.07 128.12 517.76 133.48 528.27 139.14 538.44 145.02 548.28 150.69 557.55 156.48 566.05 162.32 573.95 167.84 580.85 173.39 586.56 178.94 593.28 186.74 599.22 202.06 599.02 209.73 598.21 217.2 598.47 232.98 602.11 241.47 607.09 247.16 613.98 253.19 622.83 259.56 633.71 265.91 646.07 272.64 659.39 279.72 673.12 286.8 686.32 294.25 698.06 302.05 707.8 309.85 714.55 317.99 717.7 326.44 717.49 334.89 713.5 343.65 706.07 352.7 696.56 361.74 685.31 371.06 673.49 380.64 662.92 390.23 654.28 399.86 648.31 409.53 645.81 419.2 646.4 428.93 649.73 438.71 655.75 448.52 663.11 458.41 670.85 468.37 678.7 478.41 685.14 488.55 689.47 498.78 691.75 509.12 691.1 519.57 687.48 530.1 681.43 540.74 672.81 551.44 662.14 562.16 650.07 572.92 636.95 583.62 623.36 594.19 609.77 604.65 596.55 614.84 584.02 624.62 572.39 634.09 561.77 642.98 552.16 651.14 543.66 658.74 536.02 665.42 529.08 671.04 522.96 675.91 517.21 679.59 511.62 682.02 503.8 683.86 487.09 680.64 477.64 676.16 471.14 672.76 464.05 668.86 456.36 664.69 448.62 661.01 440.29 657.49 431.41 654.34 422.48 652.26 413.03 650.86 403.09 650.27 393.14 651.01 382.97 652.55 372.64 654.77 362.34 658.03 351.9 661.64 341.39 665.39 330.95 669.61 320.48 673.52 310.04 676.92 299.73 680.17 289.53 682.53 279.52 683.87 269.72 684.6 260.22 684.1 251.1 682.36 242.31 679.82 234.01 676.02 226.3 671.04 218.99 665.31 212.32 658.53 206.34 650.84 200.73 642.6 195.76 633.64 191.41 624.1 187.23 614.27 183.49 604.04 180.13 593.55 176.58 582.96 173.16 572.25 169.75 561.49 165.84 550.78 161.77 540.08 157.49 529.47 152.61 518.96 147.54 508.53 142.37 498.22 136.83 488.01 131.44 477.9 126.37 467.89 121.44 457.96 117.17 448.09 113.77 438.29 110.95 428.54 109.19 418.83 108.57 409.17 108.59 399.52 109.65 389.89 111.64 380.31 113.86 370.73 116.58 361.41 119.58 352.37 122.21 343.32 124.79 334.56 127.23 326.09 129.01 317.63 130.61 309.48 132.09 301.67 133.07 293.87 134.17 286.41 135.53 279.32 136.85 272.23 138.76 265.5 141.37 259.14 144.38 252.77 148.3 246.74 153.14 241.06 158.57 235.31 164.9 229.87 172.03 224.71 179.65 219.41 187.9 214.33 196.64 209.45 205.57 204.34 214.78 199.35 224.15 194.46 233.44 189.25 242.74 184.08 252 178.94 261.01 173.45 269.94 167.95 278.79 162.48 287.34 156.68 295.87 150.93 304.39 145.29 312.67 139.44 321.03 133.79 329.53 128.44 337.85 123.07 346.39 118.15 355.19 113.77 363.89 109.61 372.9 106.16 382.27 103.52 391.6 101.31 401.33 100.02 411.47 99.72"
            stroke-dasharray="5 5" transform="rotate(0, 400, 400)" opacity="0.12"></path>
        <path
            d="M417.49 110.31C427.38 110.53 437.38 111.71 447.45 113.77 457.53 116.26 467.66 119.53 477.77 123.5 487.84 127.71 497.82 132.47 507.61 137.68 517.22 142.92 526.49 148.48 535.28 154.26 543.72 159.89 551.47 165.65 558.4 171.49 564.77 177.04 570.14 182.64 574.4 188.25 579.32 196.18 583.31 211.76 583.24 219.52 583.41 227.04 587.47 242.72 593.41 251.03 599.78 256.56 607.86 262.4 617.6 268.54 628.95 274.64 641.36 281.08 654.3 287.85 667.26 294.61 679.4 301.71 689.9 309.14 698.37 316.56 703.93 324.32 706.12 332.4 705.27 340.47 701 348.86 693.67 357.55 684.53 366.23 673.86 375.21 662.68 384.48 652.65 393.75 644.31 403.11 638.34 412.52 635.5 421.95 635.45 431.46 637.95 441.04 643.02 450.66 649.49 460.36 656.54 470.15 663.98 480 670.42 489.96 675.18 499.99 678.35 510.09 678.96 520.29 676.91 530.53 672.65 540.82 665.89 551.14 657.02 561.42 646.61 571.67 634.88 581.81 622.34 591.74 609.43 601.52 596.5 610.96 583.89 619.95 571.82 628.59 560.48 636.62 549.95 643.89 540.32 650.62 531.49 656.45 523.38 661.26 516.06 665.38 509.22 668.4 502.7 670.26 496.68 671.42 490.71 671.47 484.66 670.44 478.82 668.93 472.71 666.54 466.23 663.39 459.81 660.19 452.93 656.57 445.56 652.73 438.17 649.38 430.28 646.19 421.87 643.34 413.45 641.47 404.53 640.22 395.15 639.68 385.77 640.37 376.17 641.75 366.43 643.74 356.71 646.71 346.89 649.99 337.02 653.41 327.23 657.3 317.45 660.94 307.76 664.15 298.21 667.28 288.82 669.63 279.69 671.09 270.78 672.05 262.21 671.92 254.07 670.66 246.25 668.7 238.93 665.58 232.19 661.35 225.79 656.44 219.99 650.51 214.82 643.69 209.9 636.33 205.53 628.22 201.68 619.51 197.85 610.47 194.36 600.98 191.11 591.16 187.58 581.2 184.07 571.04 180.5 560.77 176.4 550.49 172.1 540.17 167.59 529.88 162.5 519.65 157.26 509.47 151.97 499.38 146.37 489.37 140.98 479.44 135.97 469.61 131.14 459.84 127.01 450.15 123.76 440.55 121.11 430.99 119.51 421.5 119.03 412.08 119.2 402.68 120.37 393.33 122.44 384.07 124.76 374.8 127.55 365.82 130.62 357.14 133.34 348.46 136.02 340.07 138.54 331.99 140.41 323.91 142.09 316.14 143.6 308.71 144.58 301.28 145.61 294.17 146.83 287.42 147.93 280.64 149.51 274.21 151.7 268.11 154.22 261.97 157.56 256.15 161.75 250.63 166.5 245.02 172.14 239.66 178.59 234.56 185.56 229.29 193.21 224.21 201.43 219.28 209.95 214.12 218.84 209.06 227.99 204.08 237.17 198.79 246.46 193.53 255.79 188.3 264.97 182.74 274.11 177.19 283.2 171.68 292.06 165.88 300.89 160.16 309.69 154.56 318.28 148.79 326.91 143.25 335.6 138.02 344.15 132.8 352.83 128.03 361.7 123.79 370.47 119.79 379.49 116.48 388.77 113.94 398.03 111.83 407.59 110.59 417.48 110.31"
            stroke-dasharray="3 6" transform="rotate(4.04, 400, 400)" opacity="0.30"></path>
        <path
            d="M421.32 120.9C430.89 121.11 440.46 122.23 450 124.2 459.52 126.57 468.96 129.7 478.27 133.51 487.5 137.56 496.5 142.15 505.17 147.2 513.66 152.3 521.69 157.73 529.14 163.4 536.25 168.95 542.63 174.66 548.17 180.47 553.26 186.04 557.42 191.66 560.61 197.31 564.35 205.36 567.71 221.18 568.35 229.04 569.29 234.06 570.56 239.21 572.5 244.51 575.77 249.64 580.21 254.96 586.05 260.51 593.59 265.94 602.6 271.64 612.93 277.61 624.47 283.52 636.68 289.73 649.03 296.24 661.1 302.73 672.11 309.53 681.36 316.66 688.59 323.76 693.05 331.19 694.37 338.93 692.96 346.67 688.48 354.71 681.27 363.07 672.53 371.42 662.43 380.08 651.88 389.04 642.36 398 634.34 407.07 628.41 416.22 625.27 425.38 624.66 434.64 626.38 443.99 630.54 453.36 636.12 462.83 642.42 472.38 649.34 481.98 655.61 491.66 660.61 501.41 664.41 511.2 666.06 521.05 665.37 530.9 662.73 540.77 657.74 550.61 650.66 560.35 641.99 570.03 631.83 579.53 620.6 588.76 608.73 597.81 596.49 606.47 584.22 614.63 572.17 622.44 560.53 629.61 549.47 636.03 539.07 641.93 529.34 646.95 520.27 651.01 511.88 654.46 504.03 656.87 496.58 658.23 489.64 659 482.9 658.77 476.24 657.57 469.86 656 463.37 653.66 456.69 650.67 450.12 647.68 443.24 644.35 436.01 640.84 428.79 637.81 421.18 634.93 413.15 632.36 405.12 630.7 396.67 629.59 387.82 629.1 378.97 629.72 369.96 630.96 360.84 632.74 351.76 635.42 342.61 638.39 333.48 641.49 324.42 645.06 315.42 648.42 306.57 651.42 297.86 654.4 289.37 656.72 281.17 658.24 273.19 659.38 265.58 659.54 258.42 658.69 251.53 657.24 245.14 654.73 239.31 651.19 233.72 647.03 228.68 641.91 224.18 635.92 219.82 629.41 215.9 622.16 212.38 614.29 208.76 606.06 205.37 597.34 202.11 588.25 198.49 578.98 194.82 569.44 191.02 559.74 186.68 549.99 182.13 540.14 177.38 530.27 172.11 520.41 166.73 510.57 161.34 500.79 155.74 491.05 150.38 481.38 145.46 471.8 140.77 462.26 136.81 452.8 133.74 443.44 131.27 434.12 129.85 424.87 129.52 415.71 129.82 406.58 131.09 397.52 133.25 388.56 135.64 379.61 138.5 370.95 141.62 362.61 144.42 354.25 147.18 346.2 149.8 338.47 151.77 330.73 153.54 323.3 155.12 316.2 156.14 309.07 157.15 302.27 158.27 295.79 159.2 289.28 160.52 283.07 162.35 277.18 164.41 271.22 167.21 265.54 170.78 260.13 174.85 254.6 179.77 249.3 185.5 244.21 191.74 238.94 198.71 233.83 206.29 228.85 214.24 223.63 222.65 218.49 231.41 213.41 240.3 208.05 249.4 202.71 258.61 197.4 267.78 191.8 276.97 186.22 286.16 180.7 295.2 174.92 304.22 169.25 313.21 163.72 322.04 158.06 330.87 152.64 339.73 147.55 348.47 142.49 357.28 137.88 366.19 133.8 375.04 129.96 384.04 126.79 393.21 124.36 402.36 122.34 411.73 121.17 421.3 120.9"
            stroke-dasharray="3 3" transform="rotate(8.08, 400, 400)" opacity="0.57"></path>
        <path
            d="M422.49 131.48C431.69 131.68 440.77 132.74 449.69 134.62 458.59 136.87 467.3 139.86 475.74 143.5 484.1 147.38 492.12 151.8 499.71 156.67 507.12 161.61 514 166.89 520.24 172.44 526.2 177.89 531.44 183.52 535.89 189.27 540.02 194.82 543.34 200.45 545.87 206.12 549.05 214.24 552.97 230.28 554.78 238.24 556.76 243.33 559.26 248.53 562.56 253.86 567.16 259 572.91 264.31 579.92 269.81 588.38 275.19 598.02 280.79 608.66 286.63 620.12 292.39 631.91 298.43 643.51 304.74 654.58 311.01 664.41 317.57 672.43 324.43 678.47 331.26 681.9 338.41 682.45 345.85 680.56 353.28 675.93 361.02 668.89 369.06 660.55 377.1 651.02 385.45 641.07 394.1 632.07 402.76 624.37 411.53 618.5 420.39 615.13 429.26 614 438.24 615.01 447.31 618.3 456.39 622.99 465.57 628.52 474.82 634.83 484.09 640.79 493.44 645.84 502.82 650.05 512.22 652.49 521.63 652.93 531.02 651.71 540.38 648.34 549.66 642.97 558.8 636.06 567.83 627.57 576.64 617.83 585.14 607.26 593.42 596.04 601.28 584.5 608.62 572.88 615.6 561.38 621.94 550.21 627.54 539.43 632.66 529.15 636.94 519.41 640.32 510.22 643.15 501.53 645.04 493.27 645.97 485.48 646.41 477.98 645.96 470.68 644.66 463.67 643.07 456.7 640.81 449.7 638 442.83 635.24 435.81 632.2 428.57 629.01 421.38 626.29 413.92 623.71 406.17 621.41 398.42 619.94 390.36 618.95 382 618.51 373.65 619.08 365.2 620.19 356.73 621.77 348.28 624.18 339.84 626.84 331.46 629.63 323.16 632.88 314.99 635.96 307.01 638.74 299.16 641.55 291.57 643.79 284.31 645.35 277.23 646.6 270.54 646.99 264.3 646.48 258.27 645.47 252.7 643.5 247.64 640.58 242.73 637.11 238.29 632.73 234.3 627.53 230.33 621.84 226.7 615.42 223.35 608.37 219.81 600.97 216.38 593.05 213 584.71 209.2 576.17 205.29 567.32 201.23 558.26 196.63 549.09 191.83 539.79 186.85 530.42 181.43 521.03 175.94 511.61 170.5 502.21 164.92 492.83 159.66 483.49 154.86 474.22 150.35 464.98 146.59 455.81 143.72 446.73 141.46 437.68 140.22 428.71 140.04 419.85 140.46 411 141.83 402.23 144.05 393.59 146.5 384.94 149.41 376.59 152.58 368.56 155.45 360.52 158.29 352.79 160.99 345.36 163.08 337.92 164.96 330.78 166.62 323.96 167.72 317.1 168.76 310.54 169.83 304.29 170.66 297.99 171.78 291.96 173.31 286.22 174.97 280.39 177.28 274.81 180.28 269.46 183.69 263.99 187.9 258.71 192.88 253.6 198.35 248.31 204.56 243.15 211.42 238.1 218.68 232.82 226.47 227.6 234.67 222.44 243.1 217.01 251.82 211.62 260.72 206.26 269.69 200.63 278.75 195.05 287.85 189.54 296.9 183.81 305.95 178.21 314.99 172.77 323.93 167.24 332.86 161.97 341.78 157.02 350.62 152.14 359.48 147.7 368.38 143.79 377.23 140.12 386.16 137.09 395.17 134.78 404.17 132.86 413.27 131.74 422.47 131.48"
            stroke-dasharray="2 1" transform="rotate(12.12, 400, 400)" opacity="0.17"></path>
        <path
            d="M420.85 142.07C429.62 142.26 438.17 143.26 446.45 145.03 454.71 147.17 462.67 150.01 470.28 153.48 477.8 157.18 484.9 161.42 491.51 166.1 497.97 170.87 503.87 175.98 509.14 181.37 514.2 186.7 518.59 192.23 522.29 197.9 525.81 203.41 528.68 209 530.95 214.66 534.14 222.83 539.59 239.02 542.87 247.07 545.97 252.23 549.72 257.49 554.31 262.84 560.11 268.02 566.95 273.34 574.87 278.82 583.97 284.16 593.96 289.7 604.63 295.46 615.77 301.12 626.94 307.02 637.65 313.17 647.64 319.26 656.28 325.63 663.09 332.27 668.02 338.87 670.51 345.76 670.37 352.94 668.08 360.1 663.37 367.55 656.53 375.31 648.59 383.05 639.62 391.09 630.27 399.44 621.77 407.79 614.4 416.25 608.62 424.8 605.06 433.36 603.49 442.02 603.84 450.76 606.32 459.51 610.15 468.34 614.88 477.22 620.52 486.12 626.05 495.06 630.96 504 635.37 512.93 638.37 521.85 639.71 530.69 639.68 539.48 637.74 548.15 633.95 556.63 628.73 564.98 621.91 573.06 613.77 580.8 604.68 588.3 594.73 595.36 584.22 601.89 573.4 608.06 562.44 613.61 551.55 618.45 540.82 622.84 530.38 626.45 520.33 629.22 510.65 631.51 501.4 632.95 492.55 633.53 484.08 633.7 475.94 633.08 468.06 631.73 460.47 630.16 453.01 628.02 445.64 625.4 438.42 622.88 431.18 620.12 423.86 617.24 416.6 614.82 409.2 612.53 401.64 610.47 394.09 609.19 386.35 608.32 378.43 607.92 370.51 608.44 362.59 609.42 354.73 610.82 346.89 612.97 339.13 615.35 331.51 617.84 323.95 620.78 316.57 623.58 309.43 626.12 302.4 628.75 295.66 630.88 289.27 632.42 280.08 634.03 263.93 632.68 257.03 629.55 252.64 626.7 248.62 623.01 244.96 618.53 241.22 613.62 237.71 607.99 234.37 601.74 230.77 595.15 227.21 588.03 223.61 580.47 219.57 572.68 215.39 564.55 211.04 556.16 206.18 547.65 201.15 538.96 195.98 530.15 190.43 521.29 184.88 512.36 179.45 503.42 173.95 494.47 168.82 485.53 164.19 476.64 159.9 467.76 156.36 458.93 153.71 450.18 151.66 441.45 150.61 432.8 150.58 424.24 151.13 415.7 152.59 407.25 154.86 398.91 157.36 390.57 160.3 382.53 163.5 374.79 166.43 367.05 169.34 359.6 172.12 352.44 174.33 345.27 176.32 338.39 178.1 331.8 179.3 325.17 180.4 318.81 181.48 312.74 182.26 306.6 183.24 300.72 184.54 295.07 185.88 289.35 187.76 283.83 190.24 278.51 193.05 273.06 196.58 267.78 200.83 262.64 205.53 257.32 210.94 252.11 217.01 246.99 223.5 241.65 230.55 236.37 238.07 231.14 245.87 225.67 254.03 220.23 262.46 214.84 271.02 209.23 279.75 203.66 288.58 198.19 297.43 192.55 306.34 187.04 315.24 181.72 324.12 176.34 332.99 171.23 341.84 166.45 350.65 161.76 359.45 157.5 368.23 153.77 376.99 150.27 385.76 147.39 394.53 145.2 403.3 143.37 412.07 142.31 420.84 142.07"
            stroke-dasharray="8 2" transform="rotate(16.16, 400, 400)" opacity="0.20"></path>
        <path
            d="M416.62 152.66C424.91 152.83 432.9 153.78 440.55 155.45 448.18 157.47 455.43 160.16 462.27 163.45 469.05 166.97 475.36 171.01 481.17 175.49 486.86 180.07 492 185 496.57 190.21 501.01 195.4 504.87 200.8 508.18 206.36 511.43 211.79 514.2 217.33 516.58 222.94 519.11 228.37 521.43 233.85 523.7 239.38 526.44 244.7 529.42 250.08 532.81 255.5 537.04 260.72 541.96 266.02 547.68 271.41 554.47 276.62 562.16 281.96 570.72 287.43 580.16 292.77 590.22 298.28 600.65 303.96 611.28 309.55 621.66 315.35 631.38 321.37 640.24 327.33 647.69 333.53 653.35 339.98 657.24 346.38 658.89 353.05 658.15 359.99 655.54 366.9 650.79 374.1 644.18 381.56 636.66 389.02 628.23 396.77 619.47 404.8 611.46 412.83 604.42 420.97 598.77 429.18 595.06 437.41 593.1 445.71 592.87 454.08 594.58 462.46 597.59 470.89 601.52 479.35 606.43 487.81 611.43 496.29 616.08 504.73 620.49 513.15 623.83 521.5 625.82 529.75 626.74 537.92 626.01 545.94 623.62 553.72 619.96 561.36 614.76 568.7 608.22 575.66 600.7 582.4 592.19 588.68 582.94 594.42 573.21 599.84 563.11 604.64 552.86 608.77 542.56 612.5 532.36 615.5 522.36 617.73 512.57 619.56 503.08 620.62 493.92 620.91 485.04 620.88 476.46 620.16 468.17 618.79 460.11 617.28 452.26 615.28 444.57 612.87 437.02 610.59 429.56 608.11 422.13 605.54 414.77 603.4 407.39 601.38 399.97 599.56 392.57 598.45 385.09 597.69 377.54 597.33 370 597.8 362.56 598.67 355.26 599.89 347.97 601.8 340.84 603.91 333.91 606.11 327.02 608.75 320.36 611.27 313.98 613.57 304.67 617 287.86 621.18 280.44 621.5 273.49 620.59 261.31 614.29 255.91 608.95 252.23 604.74 248.7 599.87 245.25 594.38 241.49 588.57 237.69 582.23 233.81 575.44 229.5 568.42 225.02 561.03 220.38 553.35 215.29 545.53 210.06 537.48 204.74 529.28 199.14 521.01 193.58 512.64 188.2 504.2 182.84 495.75 177.88 487.27 173.47 478.8 169.42 470.34 166.14 461.91 163.72 453.53 161.9 445.16 161.04 436.86 161.15 428.64 161.82 420.43 163.35 412.3 165.66 404.28 168.19 396.25 171.15 388.51 174.37 381.06 177.35 373.6 180.32 366.41 183.18 359.51 185.5 352.58 187.62 345.92 189.52 339.53 190.85 333.1 192.05 326.91 193.18 320.97 194.42 312.08 197.89 295.23 200.69 287.18 202.97 281.75 205.88 276.44 209.43 271.27 213.38 265.92 218 260.66 223.26 255.48 228.91 250.1 235.15 244.77 241.89 239.49 248.95 234 256.41 228.56 264.19 223.17 272.18 217.59 280.39 212.08 288.76 206.68 297.22 201.14 305.78 195.76 314.38 190.58 323 185.37 331.64 180.44 340.26 175.85 348.87 171.35 357.47 167.29 366.01 163.73 374.55 160.41 383.06 157.68 391.49 155.61 399.94 153.89 408.32 152.89 416.61 152.66"
            stroke-dasharray="8 6" transform="rotate(20.200000000000003, 400, 400)" opacity="0.62"></path>
        <path
            d="M410.32 163.25C418.1 163.4 425.53 164.29 432.59 165.87 439.62 167.77 446.26 170.3 452.46 173.4 458.61 176.74 464.3 180.57 469.5 184.84 474.64 189.22 479.29 193.95 483.44 198.97 487.55 203.99 491.2 209.23 494.43 214.65 497.72 219.97 500.71 225.42 503.47 230.96 506.5 236.35 509.5 241.81 512.61 247.33 516.26 252.66 520.24 258.05 524.71 263.49 529.97 268.75 535.9 274.09 542.55 279.49 550.08 284.74 558.33 290.1 567.23 295.56 576.74 300.9 586.6 306.38 596.58 312.01 606.49 317.55 615.96 323.27 624.62 329.18 632.34 335.03 638.64 341.08 643.2 347.36 646.15 353.59 647.04 360.07 645.8 366.78 642.94 373.47 638.2 380.41 631.86 387.6 624.75 394.78 616.86 402.23 608.66 409.94 601.14 417.65 594.44 425.44 588.93 433.3 585.12 441.16 582.85 449.08 582.09 457.04 583.11 465.01 585.33 473 588.47 480.99 592.64 488.97 597.03 496.93 601.29 504.82 605.54 512.68 609 520.44 611.41 528.05 613.04 535.58 613.28 542.91 612.08 549.98 609.79 556.9 606.08 563.5 601.08 569.71 595.12 575.7 588.12 581.23 580.26 586.23 571.83 590.94 562.85 595.06 553.54 598.54 544.01 601.68 534.38 604.15 524.79 605.92 515.25 607.36 505.87 608.11 496.71 608.18 487.72 608 478.97 607.22 470.49 605.88 462.18 604.46 454.08 602.61 446.19 600.42 438.43 598.39 430.81 596.18 423.31 593.9 415.88 592.04 408.52 590.27 401.21 588.68 393.93 587.72 386.67 587.06 379.45 586.75 372.23 587.17 365.21 587.93 358.39 588.99 351.58 590.67 345 592.52 338.66 594.45 332.34 596.79 326.29 599.04 320.54 601.11 312.13 604.24 296.97 608.28 290.24 608.8 283.81 608.28 272.22 603.28 266.84 598.81 263.09 595.25 259.41 591.06 255.75 586.29 251.74 581.22 247.66 575.63 243.48 569.59 238.87 563.33 234.12 556.68 229.22 549.71 223.94 542.6 218.56 535.23 213.16 527.67 207.55 520.03 202.05 512.25 196.79 504.37 191.61 496.46 186.88 488.49 182.71 480.5 178.94 472.5 175.92 464.5 173.76 456.54 172.17 448.57 171.5 440.65 171.75 432.79 172.53 424.94 174.13 417.15 176.47 409.45 179.01 401.75 181.98 394.31 185.2 387.13 188.21 379.94 191.23 373.01 194.16 366.34 196.59 359.64 198.83 353.18 200.86 346.96 202.34 340.7 203.67 334.66 204.89 328.83 206.19 320.1 209.27 303.41 211.59 295.38 213.42 289.95 215.78 284.63 218.72 279.42 221.96 274.05 225.83 268.76 230.29 263.53 235.12 258.13 240.51 252.78 246.41 247.49 252.64 242.01 259.3 236.59 266.33 231.23 273.58 225.72 281.12 220.3 288.87 215 296.76 209.6 304.79 204.37 312.91 199.35 321.09 194.33 329.32 189.59 337.55 185.2 345.81 180.92 354.04 177.06 362.22 173.69 370.41 170.55 378.54 167.97 386.56 166.03 394.6 164.4 402.53 163.46 410.31 163.25"
            stroke-dasharray="11 1" transform="rotate(24.24, 400, 400)" opacity="0.53"></path>
        <path
            d="M402.73 173.83C409.99 173.98 416.9 174.81 423.42 176.28 429.93 178.06 436.04 180.44 441.74 183.36 447.41 186.5 452.66 190.12 457.49 194.17 462.29 198.33 466.68 202.85 470.69 207.65 474.72 212.48 478.42 217.54 481.85 222.79 485.42 227.98 488.83 233.3 492.18 238.74 495.86 244.05 499.64 249.45 503.64 254.91 508.18 260.23 513.11 265.6 518.53 271.03 524.66 276.31 531.37 281.65 538.69 287.06 546.68 292.33 555.21 297.68 564.16 303.13 573.48 308.47 582.92 313.92 592.24 319.5 601.31 325 609.78 330.65 617.34 336.45 623.92 342.2 629.12 348.13 632.67 354.25 634.76 360.33 634.99 366.61 633.34 373.11 630.29 379.58 625.62 386.27 619.55 393.19 612.87 400.1 605.5 407.24 597.86 414.62 590.81 421.99 584.46 429.42 579.12 436.89 575.25 444.37 572.71 451.88 571.5 459.4 571.88 466.92 573.38 474.44 575.76 481.92 579.16 489.39 582.9 496.8 586.67 504.11 590.61 511.38 594.01 518.52 596.63 525.47 598.73 532.34 599.69 538.98 599.44 545.34 598.32 551.56 595.92 557.43 592.32 562.92 587.85 568.19 582.33 573.02 575.92 577.33 568.88 581.39 561.19 584.89 553.01 587.8 544.52 590.43 535.76 592.44 526.87 593.82 517.91 594.93 508.96 595.44 500.12 595.35 491.34 595.08 482.71 594.28 474.29 593 465.97 591.69 457.84 590.02 449.92 588.06 442.1 586.27 434.44 584.34 426.96 582.34 419.53 580.72 412.23 579.19 405.06 577.81 397.91 577 390.86 576.44 383.92 576.16 376.99 576.54 370.31 577.2 363.9 578.1 357.49 579.57 351.35 581.18 345.49 582.86 336.84 585.91 321.03 591.55 313.88 593.7 307 595.36 294.52 595.77 288.79 594.34 283.01 591.87 271.57 583.39 265.66 577.49 261.38 573.12 257 568.23 252.5 562.91 247.63 557.37 242.63 551.44 237.52 545.18 232.11 538.78 226.66 532.1 221.24 525.2 215.69 518.21 210.32 511.04 205.24 503.76 200.3 496.42 195.83 488.99 191.95 481.51 188.47 474.02 185.74 466.49 183.84 458.97 182.48 451.44 181.99 443.93 182.39 436.45 183.27 428.98 184.92 421.55 187.27 414.18 189.82 406.82 192.78 399.68 195.98 392.78 199.01 385.87 202.06 379.18 205.05 372.72 207.58 366.24 209.94 359.97 212.11 353.91 213.75 347.81 215.22 341.9 216.58 336.18 218 327.58 220.93 311.04 222.9 303.03 224.38 297.61 226.3 292.29 228.7 287.06 231.33 281.68 234.51 276.38 238.23 271.14 242.25 265.75 246.81 260.41 251.87 255.13 257.23 249.7 263.04 244.33 269.24 239.04 275.67 233.64 282.43 228.33 289.43 223.16 296.6 217.93 303.96 212.87 311.45 208.05 319.03 203.23 326.7 198.71 334.39 194.53 342.13 190.47 349.87 186.82 357.56 183.64 365.28 180.68 372.93 178.26 380.47 176.44 388.03 174.91 395.46 174.03 402.72 173.83"
            stroke-dasharray="8 1" transform="rotate(28.28, 400, 400)" opacity="0.94"></path>
        <path
            d="M394.8 184.42C401.55 184.55 407.97 185.32 414.04 186.7 420.1 188.35 425.81 190.57 431.16 193.31 436.49 196.25 441.48 199.66 446.12 203.47 450.78 207.41 455.13 211.69 459.2 216.27 463.36 220.89 467.31 225.74 471.12 230.79 475.12 235.81 479.09 240.98 483.11 246.27 487.48 251.47 492.05 256.77 496.88 262.15 502.22 267.41 507.95 272.73 514.14 278.11 520.89 283.37 528.13 288.69 535.83 294.07 544.01 299.33 552.53 304.67 561.27 310.08 570.16 315.4 578.97 320.82 587.48 326.34 595.61 331.78 603.03 337.35 609.48 343.06 614.97 348.71 619.13 354.51 621.76 360.47 623.08 366.4 622.76 372.5 620.77 378.78 617.61 385.04 613.04 391.49 607.27 398.13 601.01 404.76 594.16 411.59 587.05 418.62 580.47 425.64 574.47 432.7 569.32 439.77 565.44 446.84 562.69 453.91 561.09 460.97 560.91 468.02 561.74 475.03 563.39 481.99 566.05 488.91 569.11 495.76 572.31 502.47 575.83 509.13 579.02 515.64 581.66 521.94 584.71 531.13 585.04 547.91 582 555.3 578.87 559.91 574.75 564.08 569.73 567.78 564.1 571.25 557.76 574.2 550.85 576.62 543.55 578.79 535.86 580.42 527.92 581.49 519.8 582.34 511.56 582.67 503.31 582.47 495.03 582.15 486.8 581.38 478.69 580.19 470.63 579.02 462.7 577.53 454.95 575.8 447.25 574.24 439.71 572.57 432.36 570.84 425.04 569.47 417.88 568.16 410.88 566.97 403.91 566.29 397.07 565.82 390.4 565.57 383.72 565.91 377.34 566.47 371.26 567.24 362.27 569.2 345.72 573.98 338.15 576.44 330.83 578.95 317.42 582.45 311.26 583.13 305.13 583.12 293.31 580.1 287.43 577.04 281.16 573.06 267.91 562.17 260.8 555.39 255.71 550.54 250.53 545.31 245.29 539.73 239.82 534.02 234.37 528.02 229.01 521.78 223.6 515.44 218.43 508.91 213.58 502.22 208.92 495.48 204.76 488.62 201.19 481.68 198.04 474.71 195.6 467.68 193.96 460.62 192.84 453.56 192.54 446.48 193.06 439.41 194.03 432.34 195.72 425.28 198.08 418.26 200.62 411.24 203.54 404.41 206.72 397.79 209.74 391.16 212.81 384.72 215.84 378.47 218.46 372.21 220.94 366.12 223.23 360.21 225.86 351.38 229.8 334.41 231.42 326.22 232.78 318.03 236.56 302.02 239.32 294.14 241.44 288.79 244.02 283.51 247.08 278.29 250.38 272.94 254.17 267.64 258.43 262.42 262.94 257.07 267.89 251.79 273.24 246.62 278.81 241.34 284.72 236.19 290.91 231.19 297.27 226.14 303.86 221.29 310.61 216.67 317.48 212.09 324.46 207.79 331.5 203.83 338.61 200 345.75 196.56 352.86 193.58 360.01 190.81 367.11 188.55 374.11 186.85 381.14 185.43 388.04 184.6 394.79 184.42"
            stroke-dasharray="5 9" transform="rotate(32.32, 400, 400)" opacity="0.89"></path>
        <path
            d="M387.52 195.01C393.78 195.13 399.77 195.84 405.46 197.12 413.86 199.68 429.25 207.6 436.3 212.76 440.96 216.46 445.42 220.5 449.72 224.83 454.12 229.22 458.44 233.84 462.72 238.67 467.21 243.49 471.77 248.47 476.46 253.59 481.47 258.64 486.73 263.8 492.26 269.05 498.23 274.21 504.55 279.45 511.25 284.74 518.38 289.94 525.87 295.2 533.67 300.52 541.76 305.73 550.01 311.02 558.31 316.38 566.57 321.65 574.6 327.01 582.19 332.45 589.31 337.83 595.66 343.31 601.03 348.9 605.48 354.44 608.68 360.11 610.48 365.91 611.14 371.67 610.35 377.59 608.11 383.64 604.89 389.68 600.47 395.88 595.02 402.23 589.18 408.58 582.83 415.09 576.25 421.75 570.13 428.42 564.48 435.08 559.53 441.73 555.68 448.38 552.77 455 550.85 461.57 550.18 468.14 550.4 474.64 551.38 481.04 553.32 487.42 555.69 493.69 558.29 499.8 561.3 505.86 564.14 511.74 566.63 517.39 569.85 525.62 571.87 540.44 570.26 546.88 566.83 552.67 554.85 561.8 546.72 565.03 540.68 566.84 534.18 568.15 527.33 568.97 520.24 569.63 512.92 569.83 505.47 569.57 497.93 569.24 490.34 568.53 482.78 567.46 475.2 566.43 467.69 565.14 460.3 563.63 452.92 562.31 445.67 560.89 438.58 559.41 431.51 558.26 424.58 557.16 417.83 556.15 411.08 555.59 404.49 555.2 398.06 554.98 391.64 555.28 385.52 555.76 379.7 556.4 371.09 558.07 355.26 562.15 347.98 564.24 340.88 566.44 327.68 569.57 321.47 570.24 315.19 570.37 302.81 568.03 296.53 565.51 289.85 562.21 275.79 552.94 268.35 547.07 263.12 542.86 257.84 538.27 252.55 533.35 247.11 528.3 241.75 522.95 236.53 517.35 231.33 511.66 226.41 505.75 221.85 499.66 217.52 493.53 213.7 487.24 210.47 480.84 207.65 474.42 205.52 467.9 204.14 461.33 203.25 454.75 203.13 448.12 203.77 441.47 204.82 434.82 206.54 428.15 208.88 421.49 211.4 414.83 214.28 408.32 217.41 401.98 220.42 395.64 223.49 389.45 226.54 383.43 229.23 377.38 231.8 371.49 234.22 365.74 237.09 357.14 241.53 340.5 243.31 332.42 244.74 324.34 248.18 308.47 250.52 300.66 253.29 292.75 261.09 277.1 266.17 269.37 269.9 264.14 274.05 259 278.58 253.96 283.3 248.86 288.36 243.89 293.72 239.08 299.24 234.26 305.01 229.63 310.97 225.24 317.05 220.9 323.28 216.84 329.61 213.12 336.01 209.52 342.47 206.31 348.95 203.53 355.47 200.94 361.97 198.84 368.41 197.26 374.87 195.94 381.25 195.18 387.51 195.01"
            stroke-dasharray="7 8" transform="rotate(36.36, 400, 400)" opacity="0.72"></path>
        <path
            d="M381.79 205.6C390.41 206.03 406.6 209.9 414.2 213.21 424.25 218.47 433.7 225.3 442.75 233.35 452.3 241.66 462 250.87 472.21 260.7 483.57 270.39 495.99 280.52 509.53 290.93 524.24 301.02 539.67 311.4 555.02 322 569.74 332.31 582.52 342.95 591.96 353.9 598.05 364.68 599.3 375.91 595.38 387.57 592.16 393.38 587.91 399.31 582.79 405.36 577.38 411.41 571.52 417.59 565.44 423.88 559.77 430.17 554.48 436.44 549.75 442.65 545.96 448.86 542.95 455.02 540.78 461.1 539.66 473.23 541.31 484.96 544.67 496.06 549.89 506.94 554.33 516.98 556.89 525.88 558.28 534.34 556.55 541.42 551.75 546.9 545.09 551.77 535.82 554.93 524.67 556.32 512.49 557.28 499.28 556.72 485.67 554.82 471.83 553.17 458.03 550.8 444.61 548.04 437.92 547.1 431.33 546.19 424.88 545.35 418.44 544.9 412.13 544.58 405.97 544.4 396.87 544.86 380.03 546.99 372.24 548.48 361.93 551.34 352.5 553.79 343.82 555.48 334.77 557.4 326.18 557.94 317.86 556.94 308.8 555.5 299.65 552.26 290.33 547.32 280.12 541.76 269.71 534.59 259.34 526.05 248.69 517.08 238.74 506.97 230.1 496.04 222.48 484.9 217.08 473.13 214.39 460.98 213.72 454.88 213.76 448.72 214.51 442.5 215.63 436.28 217.37 430.02 219.69 423.72 222.16 417.43 224.99 411.26 228.06 405.22 231.03 399.17 234.08 393.25 237.13 387.46 242.25 375.82 246.91 364.63 250.98 353.89 253.51 342.98 255.88 332.38 258.44 322.13 260.41 311.59 263.34 301.26 267.46 291.22 271.93 280.85 277.94 270.76 285.37 261.11 293.4 251.29 302.71 242.08 312.97 233.76 323.64 225.68 334.96 218.8 346.57 213.47 352.43 211.08 358.32 209.13 364.21 207.68 370.1 206.45 375.97 205.75 381.78 205.6"
            stroke-dasharray="2 4" transform="rotate(40.400000000000006, 400, 400)" opacity="0.17"></path>
        <path
            d="M378.33 216.18C389.13 216.6 399.45 219.01 409.29 223.17 419.23 228.01 428.93 234.34 438.54 241.84 448.63 249.63 459.1 258.32 470.15 267.64 482.11 276.91 494.95 286.65 508.57 296.7 522.83 306.52 537.3 316.63 551.19 326.94 564.08 337.03 574.82 347.41 582.29 358.02 586.73 368.5 586.88 379.34 582.58 390.48 575.73 401.59 565.96 413.08 554.64 424.9 544.69 436.72 536.49 448.29 530.86 459.48 528.9 470.62 529.38 481.27 531.5 491.22 535.58 500.98 539.37 509.86 541.89 517.62 543.58 528.05 532.13 541.19 519.68 543.6 509.75 544.41 498.54 543.93 486.63 542.3 474.38 540.98 461.87 539.04 449.48 536.75 437.06 535.54 424.88 534.51 413.14 533.81 401.39 534.66 390.55 535.83 380.58 537.16 370.48 539.55 361.06 541.57 352.21 542.94 343 544.59 334.06 545.07 325.27 544.24 315.83 543.11 306.28 540.42 296.6 536.21 286.27 531.52 275.89 525.35 265.75 517.9 255.58 510.06 246.27 501.12 238.37 491.32 231.54 481.32 226.85 470.64 224.71 459.47 224.18 448.26 226.17 436.67 230.49 424.86 235.41 413.04 241.35 401.56 247.62 390.48 252.85 379.35 257.72 368.55 262.1 358.11 265.03 347.53 267.73 337.2 270.47 327.16 272.47 316.89 275.15 306.82 278.75 297.04 282.43 287.03 287.4 277.32 293.62 268.07 300.25 258.75 308.1 250.06 316.92 242.25 326.06 234.71 335.95 228.33 346.3 223.42 356.78 219.19 367.52 216.7 378.32 216.18"
            stroke-dasharray="9 4" transform="rotate(44.44, 400, 400)" opacity="0.65"></path>
        <path
            d="M377.57 226.77C387.63 227.14 397.54 229.33 407.26 233.13 417.11 237.56 426.99 243.38 437.03 250.31 447.47 257.55 458.4 265.67 469.87 274.44 481.99 283.22 494.75 292.49 507.91 302.09 521.29 311.54 534.44 321.29 546.63 331.23 557.61 341.01 566.36 351.04 572.01 361.25 575.02 371.36 574.28 381.74 569.74 392.34 563.2 402.9 554.19 413.74 543.83 424.76 534.65 435.79 526.83 446.48 521.08 456.7 518.44 466.86 517.88 476.47 518.84 485.34 521.75 494.03 524.7 501.85 526.89 508.59 529.09 517.65 521.84 528.85 512.34 530.86 504.51 531.61 495.29 531.24 485.14 529.91 474.61 528.92 463.56 527.38 452.34 525.52 441.06 524.62 429.77 523.82 418.66 523.22 407.56 523.96 397.12 524.89 387.32 525.9 377.42 527.86 367.98 529.47 358.93 530.52 349.56 531.89 340.34 532.26 331.18 531.51 321.51 530.59 311.74 528.32 301.92 524.71 291.69 520.75 281.57 515.45 271.87 508.96 262.35 502.16 253.8 494.29 246.72 485.55 240.71 476.64 236.73 467 235.12 456.81 234.94 446.57 237.05 435.87 241.29 424.84 246.08 413.81 251.85 402.98 258 392.44 263.28 381.86 268.33 371.51 272.96 361.43 276.29 351.25 279.37 341.26 282.38 331.52 284.57 321.61 287.21 311.9 290.53 302.48 293.7 292.9 297.92 283.65 303.2 274.88 308.7 266.11 315.31 257.98 322.88 250.71 330.66 243.74 339.26 237.87 348.47 233.37 357.76 229.5 367.51 227.23 377.57 226.77"
            stroke-dasharray="8 5" transform="rotate(48.48, 400, 400)" opacity="0.43"></path>
        <path
            d="M379.6 237.36C388.99 237.68 398.49 239.66 408.06 243.11 417.74 247.13 427.67 252.43 437.87 258.79 448.39 265.45 459.4 272.97 470.84 281.13 482.66 289.35 494.86 298.08 507.11 307.15 519.25 316.15 530.82 325.45 541.17 334.93 550.25 344.3 557.13 353.9 561.15 363.63 562.94 373.29 561.5 383.16 556.87 393.15 550.69 403.12 542.45 413.26 533.03 423.48 524.61 433.7 517.21 443.5 511.44 452.77 508.26 462 506.8 470.61 506.71 478.47 509.47 489.62 514.26 506.76 513.43 512.35 509.87 516.4 493.1 518.79 480.95 517.66 472.13 516.98 462.59 515.83 452.61 514.36 442.56 513.74 432.25 513.14 421.86 512.63 411.48 513.26 401.49 513.99 391.91 514.72 382.25 516.28 372.85 517.5 363.69 518.24 354.27 519.31 344.9 519.53 335.55 518.8 325.85 518 316.1 516.04 306.41 512.92 296.52 509.55 286.88 504.99 277.81 499.34 269.08 493.45 261.4 486.55 255.18 478.79 250.01 470.89 246.73 462.24 245.62 453 245.76 443.71 247.97 433.89 252.1 423.67 256.72 413.45 262.28 403.31 268.26 393.35 273.55 383.38 278.71 373.53 283.55 363.9 287.25 354.19 290.71 344.62 294.04 335.28 296.53 325.82 299.31 316.55 302.54 307.58 305.48 298.52 309.23 289.8 313.86 281.58 318.52 273.41 324.17 265.87 330.72 259.17 337.39 252.78 344.89 247.42 353.1 243.34 361.34 239.82 370.21 237.77 379.6 237.36"
            stroke-dasharray="7 8" transform="rotate(52.52, 400, 400)" opacity="0.75"></path>
        <path
            d="M384.18 247.95C392.95 248.23 402.01 250 411.31 253.1 420.69 256.71 430.44 261.5 440.5 267.27 450.77 273.33 461.45 280.22 472.41 287.73 483.51 295.35 494.74 303.47 505.73 311.94 516.37 320.39 526.22 329.14 534.71 338.08 541.97 346.96 547.14 356.03 549.76 365.21 550.54 374.34 548.59 383.62 543.99 392.96 538.22 402.29 530.74 411.71 522.22 421.11 514.55 430.51 507.61 439.44 501.92 447.8 498.34 456.12 496.16 463.81 495.15 470.75 496.33 480.58 499.43 495.51 498.96 500.34 496.65 503.93 483.95 506.31 474.1 505.57 466.86 505.19 458.76 504.38 450.03 503.27 441.22 502.89 431.94 502.47 422.34 502.05 412.74 502.58 403.28 503.12 394.02 503.6 384.71 504.79 375.49 505.67 366.37 506.11 357.08 506.88 347.78 506.94 338.49 506.18 329.01 505.43 319.54 503.69 310.23 500.94 300.91 498.04 291.97 494.09 283.7 489.16 275.88 484.05 269.14 478.01 263.81 471.15 259.47 464.18 256.87 456.46 256.21 448.13 256.64 439.75 258.91 430.81 262.9 421.41 267.33 412 272.65 402.58 278.42 393.27 283.64 383.94 288.84 374.67 293.83 365.56 297.85 356.4 301.66 347.34 305.33 338.49 308.19 329.57 311.21 320.83 314.53 312.39 317.46 303.93 320.99 295.81 325.22 288.18 329.35 280.66 334.32 273.74 340.11 267.64 345.92 261.83 352.55 256.99 359.93 253.32 367.31 250.15 375.41 248.3 384.18 247.95"
            stroke-dasharray="1 9" transform="rotate(56.56, 400, 400)" opacity="0.76"></path>
        <path
            d="M390.72 258.53C398.89 258.77 407.45 260.34 416.32 263.1 425.24 266.31 434.55 270.59 444.14 275.77 453.84 281.23 463.82 287.47 473.9 294.3 483.96 301.25 493.9 308.71 503.39 316.52 512.4 324.35 520.48 332.48 527.17 340.79 532.74 349.08 536.41 357.55 537.86 366.09 537.84 374.62 535.56 383.25 531.1 391.89 525.79 400.53 519.05 409.18 511.42 417.76 504.47 426.34 498.03 434.41 492.51 441.9 488.68 449.36 485.93 456.19 484.14 462.3 484.39 477.49 482.65 491.5 478.58 493.07 472.87 493.99 455.61 493.28 444.66 492.25 437.03 492.07 428.78 491.8 420.03 491.46 411.28 491.91 402.46 492.28 393.65 492.54 384.83 493.42 375.96 493.98 367.1 494.14 358.16 494.63 349.18 494.5 340.24 493.68 331.23 492.92 322.3 491.32 313.63 488.87 305.09 486.33 297.02 482.88 289.68 478.56 282.86 474.12 277.09 468.83 272.66 462.78 269.12 456.64 267.15 449.79 266.91 442.31 267.59 434.81 269.88 426.73 273.71 418.15 277.92 409.57 282.96 400.91 288.47 392.28 293.56 383.65 298.73 375.03 303.78 366.51 308.04 357.97 312.15 349.52 316.12 341.24 319.37 332.94 322.7 324.82 326.22 316.99 329.29 309.18 332.81 301.72 336.86 294.75 340.73 287.89 345.28 281.63 350.54 276.13 355.75 270.91 361.72 266.57 368.43 263.31 375.12 260.48 382.55 258.84 390.72 258.53"
            stroke-dasharray="0 7" transform="rotate(60.599999999999994, 400, 400)" opacity="0.15"></path>
        <path
            d="M398.42 269.12C405.99 269.32 413.95 270.69 422.21 273.13 430.51 275.94 439.14 279.72 447.95 284.31 456.79 289.16 465.77 294.73 474.68 300.86 483.44 307.13 491.91 313.87 499.77 320.96 507.12 328.1 513.49 335.54 518.53 343.15 522.6 350.77 525.01 358.56 525.52 366.41 524.91 374.26 522.44 382.18 518.21 390.07 513.39 397.97 507.39 405.85 500.6 413.6 494.38 421.34 488.46 428.58 483.19 435.25 477.67 444.92 472.16 460.94 471.16 467.1 469.73 475.81 460.47 481.88 453.93 481.89 449.11 482.02 443.4 481.8 436.9 481.29 430.35 481.29 423.1 481.15 415.23 480.87 407.36 481.24 399.27 481.47 391.08 481.55 382.89 482.14 374.58 482.43 366.23 482.35 357.86 482.57 349.45 482.26 341.12 481.36 332.83 480.56 324.68 479.04 316.87 476.81 309.28 474.54 302.21 471.49 295.9 467.68 290.11 463.81 285.32 459.17 281.77 453.84 278.99 448.45 277.6 442.39 277.72 435.73 278.6 429.05 280.88 421.8 284.51 414.05 288.47 406.29 293.21 398.41 298.4 390.52 303.3 382.63 308.35 374.71 313.38 366.87 317.78 359.03 322.1 351.25 326.32 343.63 329.92 336.02 333.56 328.58 337.31 321.44 340.63 314.34 344.26 307.58 348.29 301.3 352.09 295.14 356.43 289.55 361.36 284.65 366.2 280.02 371.7 276.19 377.87 273.32 384.01 270.83 390.86 269.39 398.42 269.12"
            stroke-dasharray="1 1" transform="rotate(64.64, 400, 400)" opacity="0.23"></path>
        <path
            d="M406.32 279.71C413.26 279.87 420.53 281.06 428.02 283.17 435.53 285.6 443.27 288.89 451.07 292.91 458.84 297.15 466.6 302.05 474.15 307.46 481.49 313.01 488.41 319.01 494.66 325.35 500.42 331.74 505.22 338.43 508.8 345.28 511.6 352.16 512.98 359.2 512.79 366.3 511.78 373.4 509.27 380.56 505.35 387.67 501.05 394.79 495.76 401.87 489.8 408.79 484.28 415.71 478.91 422.15 473.96 428.05 468.33 436.59 461.24 450.67 459.16 456.1 451.86 466.97 435.45 470.66 427.45 470.39 421.82 470.54 415.5 470.5 408.52 470.28 401.55 470.58 394.29 470.7 386.86 470.63 379.45 470.98 371.88 471.03 364.26 470.74 356.68 470.72 349.08 470.23 341.6 469.25 334.22 468.39 327.04 466.92 320.25 464.85 313.72 462.79 307.73 460.06 302.5 456.69 295.82 451.25 288.66 437.13 288.65 428.58 289.67 422.67 291.91 416.23 295.32 409.3 299 402.37 303.39 395.29 308.23 388.17 312.87 381.06 317.72 373.9 322.63 366.8 327.06 359.7 331.48 352.66 335.85 345.78 339.72 338.92 343.62 332.23 347.59 325.82 351.17 319.48 354.97 313.46 359.05 307.88 362.9 302.44 367.17 297.51 371.89 293.23 376.5 289.17 381.66 285.83 387.38 283.35 393.07 281.18 399.38 279.93 406.32 279.71"
            stroke-dasharray="4 3" transform="rotate(68.68, 400, 400)" opacity="0.83"></path>
        <path
            d="M413.43 290.3C425.97 290.85 439.38 294.88 452.74 301.57 465.82 309.05 478.08 318.74 487.94 329.75 496.13 341.04 500.44 353.37 499.74 365.93 496.79 378.57 489.5 391.36 478.99 403.58 469.86 415.79 461.36 426.19 454.44 434.46 448.97 445.71 438.91 457.55 429.67 458.94 422.64 460.19 412.93 460.42 400.76 459.7 388.58 460.57 375.3 460.46 361.85 459.32 348.65 459.06 335.65 457.03 324.06 453.11 313.52 449.32 305.39 443.25 300.92 435.04 298.48 426.75 300.16 416.34 306.12 404.11 312.97 391.89 321.9 379.09 331.52 366.45 339.81 353.87 348.3 341.53 356.83 330.21 364.08 319.16 372.19 309.42 381.43 301.87 390.25 295.09 400.88 290.96 413.43 290.3"
            stroke-dasharray="2 3" transform="rotate(72.72, 400, 400)" opacity="0.90"></path>
        <path
            d="M418.86 300.88C429.97 301.31 441.4 304.68 452.35 310.32 462.98 316.6 472.46 324.83 479.58 334.26 485.41 343.96 487.93 354.6 486.45 365.5 483.51 376.48 477.16 387.6 468.19 398.2 460.25 408.8 452.43 417.82 445.56 425.02 440.95 432.19 436.74 437.6 432.4 441.14 429.09 444.87 424.45 447.05 418.07 447.76 411.77 449.19 403.35 449.65 392.9 449.11 382.45 449.78 371.1 449.43 359.71 448.09 348.6 447.47 337.88 445.35 328.58 441.66 320.22 438.15 314.05 432.75 311.02 425.58 309.54 418.37 311.45 409.35 316.93 398.74 323.11 388.13 331.19 377 340.06 366.01 348.06 355.1 356.44 344.43 364.9 334.69 372.41 325.23 380.54 316.94 389.41 310.59 397.93 304.87 407.75 301.41 418.86 300.88"
            stroke-dasharray="8 9" transform="rotate(76.76, 400, 400)" opacity="0.52"></path>
        <path
            d="M421.95 311.47C431.54 311.79 440.94 314.53 449.53 319.17 457.85 324.3 464.84 331.1 469.68 338.95 473.62 347.03 474.85 355.98 472.98 365.18 470.25 374.46 464.88 383.89 457.39 392.91 450.63 401.92 443.65 409.62 437.13 415.83 432.17 422.05 427.38 426.84 422.57 430.12 418.62 433.6 413.8 435.81 407.85 436.77 402.05 438.29 394.73 438.91 385.92 438.52 377.11 439.01 367.75 438.5 358.53 437.06 349.56 436.17 341.13 434.02 334.06 430.59 327.74 427.33 323.33 422.56 321.51 416.36 320.79 410.15 322.82 402.45 327.73 393.43 333.18 384.4 340.32 374.96 348.26 365.66 355.7 356.44 363.64 347.47 371.72 339.35 379.16 331.46 387.07 324.61 395.39 319.4 403.46 314.69 412.35 311.87 421.95 311.47"
            stroke-dasharray="3 0" transform="rotate(80.80000000000001, 400, 400)" opacity="0.30"></path>
        <path
            d="M422.29 322.06C430.29 322.28 437.73 324.43 444.18 328.12 450.42 332.17 455.34 337.59 458.41 343.9 460.94 350.41 461.34 357.65 459.41 365.16 457.03 372.74 452.66 380.48 446.58 387.94 441.01 395.39 434.99 401.83 429.08 407.09 421.71 414.46 407.56 423.8 399.62 425.99 394.27 427.5 387.94 428.19 380.7 427.93 373.45 428.28 366.02 427.67 358.93 426.23 348.88 424.13 334.72 414.91 332.39 407.56 332.25 402.31 334.26 395.88 338.54 388.42 343.2 380.95 349.3 373.2 356.17 365.6 362.79 358.07 369.96 350.8 377.31 344.26 384.3 337.91 391.63 332.44 399.14 328.33 406.51 324.58 414.3 322.35 422.29 322.06"
            stroke-dasharray="9 2" transform="rotate(84.84, 400, 400)" opacity="0.46"></path>
        <path
            d="M419.87 332.65C432.59 333.25 442.09 339.66 446.06 349.2 448.88 359.27 445.37 371.68 435.78 383.53 427.44 395.38 417.33 404.31 407.57 409.5 399.41 415.16 389.39 418.03 377.88 417.35 366.37 418.17 355.59 415.41 348.6 409.83 342.89 404.7 342.59 395.8 349.34 383.94 357.11 372.08 369.05 359.63 381.76 349.49 393.8 339.88 407.13 333.37 419.87 332.65"
            stroke-dasharray="1 3" transform="rotate(88.88, 400, 400)" opacity="0.28"></path>
        <path
            d="M414.96 343.23C424.4 343.57 430.75 348.07 432.93 354.9 434.63 362.05 431.96 371.05 424.97 379.89 418.68 388.72 410.49 395.67 402.27 399.99 394.89 404.61 386.44 407.13 377.82 406.76 365.57 406.01 354.55 392.51 360.14 380.21 366.11 371.37 375.32 362.34 385.24 355.13 394.96 348.25 405.52 343.66 414.96 343.23"
            stroke-dasharray="3 0" transform="rotate(92.92, 400, 400)" opacity="0.55"></path>
        <path
            d="M408.19 353.82C420.58 354.44 423.31 365.43 414.17 377.17 406.22 388.91 392.1 396.83 380.52 396.17 368.92 396.97 363.8 389.14 370.95 377.4 379.18 365.65 395.79 354.57 408.19 353.82"
            stroke-dasharray="9 3" transform="rotate(96.96, 400, 400)" opacity="0.34"></path>
    </g>
</svg>