<svg xmlns="http://www.w3.org/2000/svg" version="1.1" xmlns:xlink="http://www.w3.org/1999/xlink"
    xmlns:svgjs="http://svgjs.dev/svgjs" viewBox="0 0 800 800">
    <defs>
        <linearGradient x1="50%" y1="0%" x2="50%" y2="100%" id="ccchaos-grad">
            <stop stop-color="hsl(88, 96%, 14%)" stop-opacity="1" offset="0%"></stop>
            <stop stop-color="hsl(0, 73%, 55%)" stop-opacity="1" offset="100%"></stop>
        </linearGradient>
    </defs>
    <g stroke-width="2" stroke="url(#ccchaos-grad)" fill="none" stroke-linecap="round">
        <path
            d="M378.49 105.08C387.85 102.57 397.16 101.78 406.4 102.77 415.66 105.06 424.85 108.94 433.99 114.11 443.16 119.85 452.3 126.17 461.4 132.7 470.57 138.74 479.75 144.41 488.93 149.51 498.22 153.57 507.56 156.98 516.94 159.84 526.48 161.84 536.09 163.63 545.76 165.44 555.59 167.01 565.49 169.06 575.43 171.75 585.5 174.8 595.57 178.77 605.57 183.7 615.61 189.25 625.49 195.77 635.11 203.17 644.61 211.15 653.71 219.86 662.29 229.14 670.53 238.8 678.07 248.85 684.79 259.15 690.94 269.62 696.11 280.21 700.18 290.83 703.52 301.48 705.69 312.1 706.61 322.66 706.79 333.19 705.75 343.66 703.53 354.04 700.75 364.4 696.94 374.7 692.22 384.91 687.3 395.13 681.75 405.28 675.75 415.34 670.01 425.4 664.26 435.13 658.66 444.47 653.72 453.8 649.12 462.7 644.92 471.14 641.56 479.5 638.64 487.34 636.13 494.6 634.42 501.74 633.02 508.28 631.85 514.18 631.02 522.62 629.67 536.98 628.56 543.49 627.78 548.2 626.48 553.05 624.62 558.25 622.64 564.32 620 571.07 616.68 578.65 613.13 587.35 608.87 596.95 603.93 607.39 598.73 618.63 592.88 630.27 586.4 641.95 579.7 653.38 572.44 663.98 564.67 673.19 556.74 680.86 548.36 686.36 539.6 689.38 530.74 690.29 521.55 688.76 512.09 685.05 502.58 680.25 492.84 674.44 482.92 668.36 472.99 663.38 462.9 659.66 452.7 657.8 442.49 658.66 432.18 661.85 421.79 667.15 411.41 674.48 401.19 682.44 391.15 690.11 381.1 697.2 371.22 702.31 361.52 704.88 351.8 705.08 342.24 702.29 332.86 696.72 323.44 689.08 314.17 679.52 305.07 668.74 295.92 657.59 286.92 646.44 278.09 635.87 269.21 626.47 260.48 618.32 251.94 611.51 243.35 606.35 234.94 602.4 226.75 599.41 218.52 597.55 210.53 596.06 202.8 594.61 195.07 593.44 187.63 591.74 180.52 589.32 173.46 586.55 166.76 582.79 160.46 578.01 154.26 572.66 148.5 566.31 143.2 559.07 138.05 551.32 133.39 542.85 129.27 533.8 125.32 524.43 121.91 514.66 119.07 504.63 116.41 494.45 114.32 484.13 112.82 473.77 111.48 463.37 110.71 452.99 110.54 442.71 110.48 432.43 110.98 422.26 112.07 412.23 113.2 402.21 114.83 392.56 116.94 383.28 119.02 373.97 121.53 364.99 124.43 356.32 127.24 347.57 130.4 339.07 133.89 330.77 137.24 322.31 140.88 313.95 144.8 305.66 148.55 297.1 152.56 288.5 156.82 279.79 160.9 270.75 165.23 261.55 169.79 252.16 174.2 242.47 178.86 232.64 183.76 222.73 188.54 212.72 193.6 202.82 198.92 193.22 204.16 183.89 209.69 175.15 215.51 167.23 221.28 160 227.37 153.86 233.76 148.92 240.13 144.87 246.82 142.04 253.81 140.37 260.8 139.25 268.1 138.91 275.68 139.1 283.28 139.03 291.15 138.9 299.28 138.43 307.42 136.91 315.81 134.68 324.43 131.69 333.04 127.58 341.88 122.96 350.89 118.13 359.91 113.05 369.11 108.55 378.48 105.08"
            stroke-dasharray="3 8" transform="rotate(0, 400, 400)" opacity="0.20"></path>
        <path
            d="M380.02 115.89C389.06 113.4 398.08 112.54 407.06 113.37 416.05 115.43 425.02 119.03 433.96 123.9 442.94 129.39 451.91 135.53 460.87 141.98 469.9 148.08 478.95 153.92 488.02 159.3 497.19 163.76 506.41 167.61 515.67 170.9 525.06 173.32 534.5 175.42 543.99 177.41 553.61 179.01 563.26 180.9 572.91 183.24 582.64 185.75 592.32 189.01 601.89 193.09 611.45 197.66 620.81 203.13 629.86 209.44 638.76 216.29 647.22 223.91 655.15 232.17 662.72 240.83 669.6 249.99 675.67 259.5 681.21 269.24 685.8 279.21 689.36 289.31 692.25 299.5 694.05 309.73 694.69 319.95 694.68 330.18 693.55 340.37 691.33 350.47 688.62 360.57 684.97 370.58 680.49 380.46 675.83 390.35 670.59 400.12 664.91 409.73 659.47 419.34 653.99 428.54 648.63 437.32 643.85 446.08 639.34 454.38 635.18 462.19 631.76 469.95 628.72 477.19 626.05 483.89 623.27 493.6 619.69 510.5 618.43 517.97 617.56 525.54 614.66 541.38 612.2 550.54 610.33 557.66 607.88 565.45 604.82 574 601.59 583.47 597.72 593.63 593.23 604.37 588.52 615.56 583.19 626.84 577.28 637.83 571.17 648.29 564.51 657.68 557.36 665.54 550.05 671.84 542.3 676.01 534.15 677.86 525.9 677.87 517.31 675.74 508.43 671.77 499.49 667.02 490.29 661.52 480.89 655.95 471.46 651.56 461.85 648.39 452.1 646.97 442.34 648.06 432.44 651.25 422.44 656.35 412.44 663.29 402.57 670.82 392.84 678.12 383.11 684.98 373.52 690.11 364.09 692.99 354.64 693.78 345.32 691.81 336.16 687.22 326.97 680.64 317.92 672.1 309.03 662.18 300.09 651.64 291.3 640.81 282.66 630.22 273.99 620.45 265.47 611.63 257.13 603.92 248.76 597.66 240.57 592.55 232.59 588.44 224.6 585.51 216.84 583.15 209.33 581.07 201.86 579.5 194.66 577.71 187.79 575.49 180.99 573.17 174.54 570.11 168.48 566.23 162.53 561.96 157 556.79 151.93 550.79 147.01 544.36 142.57 537.18 138.64 529.36 134.88 521.24 131.66 512.62 128.98 503.62 126.48 494.45 124.53 485.02 123.16 475.43 121.94 465.78 121.27 456.05 121.19 446.3 121.21 436.53 121.78 426.78 122.91 417.09 124.08 407.39 125.75 397.97 127.86 388.83 129.96 379.66 132.46 370.72 135.33 362 138.13 353.2 141.26 344.55 144.69 336.01 148 327.33 151.6 318.68 155.45 310.01 159.14 301.13 163.08 292.16 167.25 283.08 171.25 273.74 175.49 264.28 179.95 254.7 184.25 244.94 188.79 235.16 193.57 225.44 198.21 215.76 203.11 206.36 208.26 197.39 213.31 188.83 218.64 180.97 224.24 174 229.78 167.75 235.61 162.57 241.72 158.55 247.81 155.3 254.19 153.14 260.85 151.98 267.51 151.18 274.46 150.99 281.68 151.17 288.9 150.95 296.4 150.57 304.15 149.79 311.9 147.98 319.9 145.48 328.13 142.29 336.36 138.07 344.81 133.43 353.47 128.65 362.12 123.67 370.97 119.28 380.01 115.89"
            stroke-dasharray="8 3" transform="rotate(5.32, 400, 400)" opacity="0.16"></path>
        <path
            d="M382.2 126.7C390.93 124.24 399.66 123.31 408.38 123.98 417.11 125.82 425.85 129.14 434.58 133.7 443.35 138.91 452.14 144.83 460.93 151.14 469.78 157.24 478.67 163.2 487.58 168.81 496.58 173.62 505.63 177.88 514.71 181.61 523.89 184.47 533.12 186.97 542.36 189.23 551.69 191.01 561.02 192.89 570.32 195.06 579.65 197.23 588.9 199.96 597.99 203.36 607.03 207.1 615.83 211.64 624.29 216.95 632.57 222.72 640.39 229.25 647.67 236.43 654.59 244.02 660.83 252.17 666.28 260.74 671.23 269.59 675.29 278.75 678.37 288.12 680.85 297.64 682.31 307.28 682.71 316.96 682.53 326.7 681.33 336.43 679.13 346.1 676.5 355.79 673.02 365.39 668.77 374.86 664.38 384.34 659.43 393.67 654.07 402.82 648.92 411.96 643.72 420.69 638.58 428.98 633.97 437.25 629.57 445.06 625.46 452.41 622.02 459.74 618.89 466.59 616.08 472.99 613.92 479.39 612.02 485.36 610.32 490.97 608.59 499.4 605.7 515.82 604.07 524.43 603.06 530.79 601.68 537.53 599.89 544.78 598.08 552.79 595.76 561.41 592.9 570.66 589.93 580.59 586.38 590.98 582.26 601.67 577.97 612.51 573.11 623.14 567.7 633.21 562.12 642.54 556.02 650.64 549.43 657.14 542.71 662.1 535.54 665.05 527.98 665.88 520.32 665.13 512.31 662.54 503.99 658.43 495.61 653.82 486.95 648.69 478.06 643.66 469.15 639.83 460.02 637.2 450.73 636.19 441.42 637.47 431.96 640.65 422.36 645.54 412.76 652.11 403.25 659.22 393.87 666.15 384.48 672.76 375.2 677.87 366.04 681 356.88 682.28 347.84 681.06 338.92 677.41 329.99 671.86 321.18 664.35 312.51 655.36 303.82 645.58 295.26 635.24 286.84 624.85 278.41 614.95 270.12 605.7 262.01 597.31 253.88 590.14 245.93 583.99 238.19 578.79 230.46 574.76 222.95 571.41 215.71 568.51 208.5 566.28 201.57 564.09 194.96 561.71 188.42 559.48 182.24 556.74 176.43 553.39 170.75 549.84 165.47 545.55 160.64 540.53 155.95 535.19 151.73 529.13 148.02 522.42 144.46 515.45 141.42 507.93 138.92 499.95 136.58 491.8 134.77 483.3 133.52 474.53 132.42 465.69 131.86 456.65 131.85 447.48 131.95 438.29 132.58 429.01 133.74 419.68 134.96 410.34 136.65 401.16 138.76 392.15 140.86 383.13 143.35 374.23 146.2 365.46 148.97 356.62 152.06 347.84 155.45 339.1 158.72 330.24 162.26 321.36 166.04 312.42 169.68 303.32 173.55 294.13 177.64 284.86 181.57 275.42 185.72 265.91 190.08 256.38 194.29 246.8 198.73 237.31 203.38 228.01 207.9 218.9 212.66 210.19 217.65 202.03 222.54 194.36 227.69 187.46 233.08 181.48 238.41 176.2 244.01 171.94 249.87 168.76 255.7 166.23 261.8 164.62 268.17 163.85 274.52 163.27 281.15 163.13 288.04 163.2 294.92 162.79 302.06 162.13 309.46 161.03 316.85 158.92 324.49 156.18 332.37 152.8 340.23 148.5 348.33 143.86 356.64 139.14 364.95 134.28 373.47 130.01 382.19 126.7"
            stroke-dasharray="10 6" transform="rotate(10.64, 400, 400)" opacity="0.56"></path>
        <path
            d="M384.96 137.51C393.38 135.08 401.83 134.1 410.28 134.62 418.75 136.23 427.25 139.26 435.76 143.51 444.29 148.42 452.87 154.09 461.46 160.22 470.1 166.25 478.79 172.26 487.5 178.04 496.28 183.14 505.1 187.78 513.94 191.92 522.86 195.25 531.81 198.17 540.74 200.79 549.73 202.85 558.69 204.89 567.58 207.05 576.47 209.06 585.23 211.47 593.8 214.38 602.29 217.48 610.51 221.25 618.36 225.69 626.02 230.49 633.21 236 639.84 242.14 646.13 248.66 651.75 255.75 656.61 263.32 661.02 271.17 664.57 279.4 667.22 287.91 669.33 296.6 670.49 305.48 670.68 314.47 670.35 323.55 669.1 332.68 666.94 341.78 664.41 350.93 661.09 360.02 657.07 368.99 652.93 377.99 648.28 386.85 643.23 395.53 638.37 404.22 633.43 412.51 628.53 420.39 624.09 428.26 619.82 435.72 615.77 442.77 612.32 449.83 609.13 456.5 606.2 462.8 603.88 469.16 601.77 475.23 599.83 481.05 598.4 487.05 597.03 492.93 595.67 498.8 594.65 505.01 593.5 511.38 592.17 518.01 591.01 525.18 589.54 532.76 587.72 540.82 585.92 549.5 583.69 558.68 580.99 568.31 578.21 578.37 574.91 588.67 571.11 598.98 567.17 609.19 562.71 618.94 557.74 627.91 552.63 636.01 547.02 642.79 540.96 647.95 534.78 651.66 528.16 653.52 521.15 653.47 514.05 652.11 506.59 649.2 498.81 645.08 490.97 640.67 482.85 635.97 474.47 631.48 466.06 628.2 457.43 626.07 448.6 625.44 439.76 626.9 430.73 630.06 421.55 634.73 412.37 640.94 403.25 647.63 394.22 654.19 385.18 660.54 376.24 665.59 367.39 668.9 358.54 670.61 349.79 670.07 341.15 667.28 332.51 662.72 323.97 656.25 315.55 648.24 307.13 639.31 298.82 629.62 290.66 619.62 282.49 609.82 274.46 600.39 266.6 591.56 258.74 583.68 251.06 576.66 243.59 570.5 236.14 565.42 228.91 561.05 221.94 557.23 215.01 554.17 208.37 551.33 202.04 548.52 195.79 546.03 189.88 543.27 184.35 540.1 178.93 536.92 173.92 533.17 169.33 528.81 164.9 524.27 160.91 519.08 157.41 513.29 154.06 507.3 151.21 500.74 148.88 493.69 146.7 486.49 145.04 478.87 143.91 470.9 142.93 462.86 142.46 454.52 142.53 445.96 142.71 437.37 143.39 428.59 144.58 419.64 145.83 410.7 147.53 401.8 149.64 392.97 151.74 384.12 154.21 375.31 157.02 366.54 159.76 357.72 162.82 348.89 166.15 340.05 169.38 331.12 172.86 322.13 176.58 313.09 180.16 303.94 183.96 294.73 187.98 285.47 191.84 276.15 195.91 266.84 200.18 257.6 204.31 248.44 208.65 239.47 213.19 230.82 217.6 222.45 222.23 214.58 227.08 207.35 231.82 200.65 236.8 194.74 242.02 189.75 247.16 185.4 252.55 181.99 258.19 179.55 263.77 177.6 269.62 176.43 275.72 175.92 281.79 175.46 288.13 175.28 294.72 175.18 301.28 174.52 308.11 173.55 315.18 172.13 322.24 169.74 329.54 166.76 337.08 163.22 344.61 158.87 352.37 154.25 360.35 149.61 368.33 144.88 376.53 140.73 384.95 137.51"
            stroke-dasharray="10 3" transform="rotate(15.959999999999999, 400, 400)" opacity="0.43"></path>
        <path
            d="M388.21 148.31C396.32 145.93 404.49 144.89 412.67 145.26 420.87 146.66 429.11 149.4 437.37 153.33 445.66 157.92 453.99 163.31 462.35 169.21 470.74 175.13 479.18 181.13 487.65 187 496.16 192.32 504.71 197.28 513.26 201.8 521.86 205.57 530.47 208.94 539.04 211.98 547.64 214.4 556.18 216.71 564.61 219.01 573.01 221.04 581.26 223.31 589.28 225.93 597.2 228.6 604.82 231.79 612.06 235.54 619.09 239.54 625.65 244.16 631.66 249.36 637.34 254.88 642.37 260.95 646.69 267.52 650.57 274.35 653.67 281.6 655.92 289.19 657.69 296.96 658.59 304.98 658.59 313.18 658.16 321.48 656.87 329.89 654.76 338.34 652.33 346.85 649.19 355.34 645.4 363.78 641.51 372.23 637.14 380.6 632.39 388.84 627.81 397.08 623.14 404.98 618.47 412.54 614.21 420.09 610.07 427.32 606.1 434.22 602.66 441.14 599.44 447.78 596.43 454.17 593.96 460.65 591.68 466.96 589.54 473.15 587.87 479.56 586.26 485.96 584.67 492.46 583.4 499.31 582.05 506.38 580.54 513.74 579.21 521.58 577.64 529.79 575.76 538.41 573.94 547.48 571.75 556.9 569.14 566.58 566.5 576.46 563.41 586.34 559.86 596 556.21 605.34 552.09 614.04 547.5 621.8 542.8 628.61 537.64 634.08 532.04 637.98 526.35 640.56 520.23 641.46 513.73 640.69 507.16 638.87 500.22 635.78 492.96 631.74 485.65 627.62 478.04 623.37 470.16 619.43 462.26 616.68 454.11 615.02 445.75 614.73 437.37 616.34 428.8 619.46 420.05 623.92 411.29 629.77 402.57 636.06 393.92 642.25 385.26 648.32 376.66 653.27 368.15 656.71 359.64 658.78 351.2 658.84 342.87 656.84 334.53 653.22 326.29 647.76 318.16 640.75 310.02 632.75 302.01 623.83 294.12 614.39 286.24 604.91 278.5 595.53 270.93 586.5 263.37 578.17 255.98 570.49 248.8 563.54 241.65 557.53 234.72 552.19 228.05 547.45 221.43 543.47 215.09 539.84 209.05 536.4 203.11 533.4 197.49 530.32 192.24 527.04 187.11 523.88 182.36 520.33 178.04 516.33 173.85 512.27 170.1 507.67 166.82 502.54 163.69 497.28 161.03 491.5 158.87 485.22 156.85 478.83 155.34 471.99 154.34 464.74 153.46 457.44 153.09 449.78 153.23 441.8 153.47 433.81 154.2 425.53 155.42 417 156.7 408.47 158.4 399.89 160.5 391.29 162.58 382.69 165.03 374.04 167.8 365.36 170.51 356.66 173.52 347.91 176.8 339.1 179.97 330.25 183.4 321.34 187.05 312.39 190.57 303.4 194.31 294.38 198.25 285.38 202.04 276.41 206.04 267.53 210.23 258.82 214.27 250.28 218.52 242.03 222.95 234.19 227.26 226.71 231.78 219.79 236.49 213.55 241.11 207.83 245.94 202.9 250.99 198.84 258.56 194 274.78 188.93 283.45 188.13 289.27 187.67 295.34 187.37 301.65 187.04 307.93 186.1 314.46 184.81 321.23 183.07 327.98 180.42 334.97 177.24 342.2 173.57 349.41 169.18 356.85 164.6 364.52 160.06 372.19 155.47 380.08 151.45 388.2 148.32"
            stroke-dasharray="3 5" transform="rotate(21.28, 400, 400)" opacity="0.15"></path>
        <path
            d="M391.84 159.12C399.65 156.78 407.52 155.7 415.43 155.93 423.34 157.12 431.3 159.58 439.3 163.17 447.31 167.44 455.37 172.5 463.46 178.15 471.58 183.89 479.73 189.8 487.9 195.7 496.1 201.17 504.33 206.38 512.54 211.23 520.78 215.41 529 219.22 537.16 222.68 545.32 225.53 553.39 228.19 561.33 230.75 569.22 232.95 576.92 235.26 584.38 237.79 591.71 240.23 598.73 243.05 605.36 246.31 611.77 249.7 617.72 253.6 623.13 258.03 628.23 262.67 632.71 267.84 636.5 273.49 639.91 279.36 642.59 285.66 644.47 292.32 645.94 299.16 646.61 306.29 646.47 313.66 645.94 321.13 644.64 328.78 642.59 336.53 640.27 344.33 637.3 352.19 633.74 360.06 630.1 367.95 626.01 375.82 621.55 383.63 617.25 391.44 612.83 399 608.4 406.3 604.32 413.62 600.32 420.69 596.46 427.54 593.05 434.44 589.81 441.15 586.75 447.73 584.17 454.42 581.74 461.04 579.43 467.66 577.55 474.48 575.73 481.4 573.92 488.47 572.43 495.86 570.87 503.49 569.18 511.41 567.69 519.69 565.99 528.28 564.04 537.16 562.17 546.31 559.98 555.65 557.43 565.06 554.89 574.45 551.94 583.64 548.59 592.42 545.18 600.72 541.34 608.25 537.08 614.74 530.34 622.4 514.69 628.88 505.83 627.6 499.74 625.47 493.29 622.32 486.52 618.44 479.71 614.67 472.6 610.89 465.21 607.49 457.79 605.26 450.13 604.04 442.23 604.06 434.32 605.8 426.2 608.86 417.89 613.11 409.57 618.61 401.27 624.5 393.01 630.33 384.74 636.1 376.52 640.92 368.36 644.43 360.21 646.8 352.12 647.37 344.11 646.1 336.11 643.34 328.19 638.85 320.37 632.85 312.56 625.81 304.86 617.76 297.28 609.03 289.72 600.06 282.29 590.95 275.03 581.97 267.79 573.42 260.72 565.34 253.85 557.81 247.03 551.04 240.42 544.87 234.07 539.26 227.77 534.39 221.75 529.92 216.02 525.74 210.39 522.06 205.08 518.46 200.13 514.81 193.05 509.58 181.08 497.79 176.26 490.9 173.35 486.13 170.88 480.88 168.89 475.18 167.05 469.41 165.67 463.2 164.79 456.57 164.03 449.9 163.75 442.83 163.95 435.41 164.25 427.97 165.02 420.19 166.26 412.1 167.55 404 169.25 395.79 171.33 387.5 173.4 379.2 175.81 370.82 178.54 362.36 181.21 353.9 184.17 345.36 187.38 336.77 190.51 328.17 193.87 319.53 197.45 310.88 200.91 302.25 204.58 293.64 208.44 285.13 212.17 276.72 216.09 268.48 220.19 260.49 224.16 252.74 228.32 245.35 232.66 238.45 236.87 231.92 241.28 225.99 245.88 220.75 252.72 213.98 267.3 204.95 275.07 202.57 282.96 201.07 299.81 199.61 308.78 198.75 314.8 197.51 321.06 195.9 327.54 193.85 334.01 190.96 340.71 187.6 347.63 183.83 354.55 179.44 361.69 174.91 369.06 170.48 376.42 166.04 384.01 162.16 391.83 159.13"
            stroke-dasharray="4 6" transform="rotate(26.6, 400, 400)" opacity="0.79"></path>
        <path
            d="M395.73 169.93C403.24 167.64 410.82 166.52 418.43 166.62 426.05 167.6 433.71 169.78 441.41 173.05 449.13 176.97 456.89 181.7 464.67 187.04 472.47 192.55 480.3 198.32 488.13 204.17 495.99 209.72 503.84 215.09 511.67 220.2 519.51 224.73 527.3 228.94 535 232.82 542.7 236.11 550.27 239.17 557.69 242.08 565.04 244.57 572.18 247.07 579.05 249.66 585.8 252.07 592.22 254.73 598.24 257.7 604.06 260.69 609.42 264.09 614.25 267.93 620.78 274.09 630.2 288.91 632.91 297.46 634.11 303.41 634.58 309.7 634.31 316.26 633.71 322.92 632.42 329.8 630.44 336.85 628.24 343.94 625.44 351.17 622.1 358.48 618.7 365.8 614.88 373.18 610.71 380.59 606.67 388 602.52 395.26 598.32 402.36 594.43 409.48 590.58 416.46 586.83 423.32 583.48 430.22 580.25 437.06 577.16 443.85 574.49 450.75 571.94 457.68 569.5 464.68 567.44 471.86 565.43 479.19 563.44 486.69 561.74 494.45 559.98 502.43 558.13 510.65 556.47 519.11 554.64 527.78 552.6 536.6 550.66 545.53 548.45 554.48 545.93 563.32 543.44 571.98 540.6 580.27 537.4 588 534.18 595.15 530.57 601.45 526.58 606.69 520.31 612.55 505.78 616.28 497.56 614.28 491.9 611.96 485.91 608.86 479.61 605.24 473.26 601.85 466.62 598.56 459.7 595.69 452.76 593.94 445.56 593.13 438.13 593.42 430.69 595.26 423.02 598.27 415.15 602.3 407.28 607.46 399.41 612.97 391.55 618.42 383.69 623.9 375.86 628.56 368.08 632.09 360.31 634.68 352.58 635.69 344.93 635.05 337.28 633.09 329.71 629.52 322.23 624.5 314.77 618.45 307.41 611.32 300.17 603.41 292.95 595.1 285.87 586.46 278.94 577.74 272.04 569.24 265.32 560.99 258.79 553.12 252.31 545.82 246.04 539.01 240.02 532.69 234.07 527.01 228.37 521.74 222.98 516.81 217.67 512.39 212.67 508.14 208.02 503.97 201.39 498.14 190.21 485.94 185.75 479.23 181.91 472.21 176.66 456.18 175.27 447.16 174.62 440.98 174.43 434.42 174.69 427.48 175.05 420.54 175.85 413.23 177.1 405.58 178.4 397.94 180.09 390.14 182.14 382.22 184.19 374.31 186.56 366.29 189.24 358.18 191.86 350.09 194.76 341.92 197.91 333.72 200.97 325.54 204.27 317.35 207.77 309.2 211.17 301.12 214.77 293.13 218.55 285.29 222.21 277.61 226.05 270.16 230.07 263.04 233.96 256.18 238.03 249.74 242.27 243.82 246.4 238.26 250.71 233.3 255.19 229.01 261.86 223.52 276.02 216.45 283.54 214.62 291.16 213.35 307.39 211.55 316.01 210.26 321.79 208.71 327.8 206.79 334.02 204.45 340.22 201.35 346.65 197.84 353.29 194 359.92 189.63 366.77 185.19 373.84 180.89 380.91 176.6 388.2 172.87 395.72 169.94"
            stroke-dasharray="7 1" transform="rotate(31.919999999999998, 400, 400)" opacity="0.49"></path>
        <path
            d="M399.76 180.74C406.97 178.5 414.23 177.35 421.53 177.33 428.84 178.12 436.2 180.02 443.58 182.96 450.97 186.53 458.4 190.9 465.84 195.91 473.3 201.15 480.76 206.71 488.22 212.44 495.69 217.97 503.14 223.43 510.54 228.71 517.94 233.53 525.27 238.07 532.49 242.33 539.68 246.06 546.74 249.54 553.61 252.83 560.41 255.69 566.99 258.48 573.28 261.28 579.44 263.82 585.27 266.5 590.71 269.38 598.35 273.74 610.8 284.15 615.42 290.34 618.97 297.06 622.34 312.49 622.12 321.1 621.48 327 620.2 333.17 618.3 339.57 616.22 345.99 613.6 352.61 610.48 359.39 607.32 366.17 603.76 373.1 599.87 380.13 596.1 387.17 592.2 394.15 588.23 401.07 584.53 408.01 580.85 414.9 577.21 421.77 573.93 428.69 570.74 435.62 567.64 442.58 564.92 449.64 562.29 456.79 559.74 464.04 557.53 471.45 555.36 479.01 553.21 486.73 551.33 494.63 549.4 502.71 547.39 510.94 545.57 519.29 543.61 527.74 541.47 536.2 539.45 544.63 537.19 552.93 534.68 560.96 532.21 568.7 529.44 575.94 526.36 582.52 521.56 591.02 510.21 601.83 503.65 603.72 496.67 603.27 480.98 596.93 472.32 592.14 466.41 589.17 460.22 586.37 453.75 584.02 447.27 582.72 440.52 582.28 433.54 582.82 426.56 584.74 419.34 587.67 411.92 591.49 404.5 596.32 397.06 601.45 389.62 606.54 382.19 611.7 374.77 616.17 367.38 619.69 360.01 622.43 352.67 623.8 345.39 623.71 338.13 622.47 330.93 619.75 323.82 615.67 316.73 610.59 309.73 604.43 302.85 597.41 296 589.88 289.28 581.88 282.71 573.62 276.18 565.4 269.82 557.23 263.65 549.27 257.53 541.69 251.62 534.46 245.95 527.62 240.35 521.29 235 515.35 229.94 509.74 224.97 504.6 220.29 499.69 215.95 494.93 209.77 488.31 199.4 475.19 195.28 468.35 191.76 461.37 187 445.96 185.79 437.42 185.25 431.6 185.13 425.43 185.45 418.92 185.86 412.39 186.69 405.53 187.94 398.33 189.25 391.13 190.92 383.78 192.94 376.31 194.95 368.85 197.28 361.28 199.89 353.65 202.46 346.04 205.3 338.38 208.37 330.72 211.37 323.11 214.59 315.53 218.01 308.04 221.34 300.66 224.86 293.42 228.56 286.4 232.15 279.55 235.91 273 239.84 266.81 243.66 260.89 247.64 255.42 251.78 250.46 257.93 243.81 270.91 233.95 277.76 230.74 284.67 228.38 299.33 225.67 307.09 224.76 314.98 223.32 331.72 218.58 340.58 214.87 346.53 211.6 352.69 207.98 359.06 204.1 365.42 199.77 371.99 195.44 378.77 191.27 385.55 187.15 392.54 183.57 399.75 180.75"
            stroke-dasharray="9 5" transform="rotate(37.24, 400, 400)" opacity="0.92"></path>
        <path
            d="M403.8 191.55C410.7 189.37 417.64 188.2 424.62 188.07 431.6 188.66 438.62 190.31 445.66 192.91 452.7 196.13 459.77 200.13 466.84 204.78 473.92 209.7 481 215 488.05 220.53 495.1 225.97 502.11 231.43 509.05 236.79 515.99 241.8 522.83 246.61 529.55 251.18 536.22 255.29 542.74 259.18 549.07 262.87 555.31 266.13 561.31 269.28 567.03 272.37 575.25 276.58 589.57 285.27 595.49 290.03 600.56 295.01 607.58 306.58 609.43 313.24 610.28 320.29 608.62 336.03 606.19 344.63 604.23 350.47 601.79 356.54 598.89 362.83 595.95 369.13 592.65 375.63 589.03 382.31 585.51 388.99 581.86 395.71 578.13 402.45 574.63 409.2 571.11 415.99 567.61 422.82 564.42 429.69 561.28 436.63 558.21 443.66 555.46 450.76 552.77 457.98 550.15 465.32 547.82 472.76 545.52 480.34 543.23 488.04 541.2 495.83 539.11 503.73 536.97 511.68 535 519.66 532.92 527.61 530.69 535.45 528.58 543.15 526.27 550.59 523.74 557.65 519.91 567.39 510.94 582.6 505.72 587.5 500.17 590.32 487.48 589.95 480.34 587.18 475.45 584.86 470.26 582.13 464.79 579.19 459.29 576.65 453.51 574.35 447.48 572.49 441.42 571.61 435.12 571.5 428.59 572.26 422.04 574.23 415.28 577.07 408.31 580.68 401.34 585.19 394.34 589.95 387.33 594.68 380.33 599.52 373.32 603.79 366.35 607.24 359.38 610.07 352.45 611.72 345.57 612.1 338.71 611.49 331.9 609.55 325.18 606.34 318.48 602.21 311.87 597.01 305.38 590.92 298.92 584.26 292.58 577.02 286.39 569.4 280.25 561.65 274.26 553.79 268.46 545.97 262.72 538.37 257.19 530.97 251.88 523.84 246.64 517.09 241.65 510.65 236.93 504.5 232.3 498.75 227.96 493.24 223.93 487.93 218.21 480.49 208.64 466.17 204.87 458.99 201.65 451.84 197.38 436.57 196.35 428.32 195.9 422.74 195.86 416.86 196.23 410.69 196.68 404.52 197.53 398.05 198.78 391.29 200.08 384.53 201.73 377.65 203.7 370.67 205.68 363.71 207.95 356.68 210.5 349.61 213 342.57 215.77 335.53 218.76 328.53 221.68 321.59 224.83 314.74 228.16 308.03 231.41 301.43 234.85 295.03 238.45 288.89 241.96 282.93 245.64 277.3 249.48 272.06 255.16 264.78 267.15 253.01 273.47 248.64 279.81 245.12 293.19 240.59 300.25 239.25 307.39 237.9 322.5 234.83 330.49 232.58 335.83 230.42 341.38 227.93 347.11 225.11 352.82 221.69 358.73 218 364.84 214.11 370.93 209.86 377.22 205.65 383.71 201.63 390.2 197.69 396.89 194.27 403.79 191.55"
            stroke-dasharray="0 4" transform="rotate(42.56, 400, 400)" opacity="0.35"></path>
        <path
            d="M407.71 202.36C414.29 200.25 420.9 199.06 427.53 198.82 434.17 199.25 440.84 200.63 447.51 202.92 454.19 205.78 460.88 209.41 467.55 213.66 474.23 218.23 480.89 223.22 487.5 228.49 494.11 233.76 500.66 239.13 507.12 244.48 513.57 249.58 519.91 254.56 526.1 259.37 532.25 263.8 538.23 268.03 544.01 272.08 549.7 275.74 555.14 279.27 560.3 282.7 567.69 287.38 580.43 296.58 585.63 301.36 590.05 306.18 596.05 317 597.55 323.1 598.17 329.51 596.4 343.82 594.1 351.69 592.27 357.04 590 362.65 587.31 368.52 584.6 374.38 581.55 380.49 578.19 386.84 574.93 393.19 571.52 399.63 568.02 406.15 564.71 412.68 561.37 419.3 558.02 426.01 554.93 432.75 551.87 439.6 548.84 446.55 546.09 453.54 543.38 460.65 540.71 467.86 538.3 475.12 535.9 482.48 533.51 489.91 531.34 497.35 529.13 504.82 526.87 512.24 524.78 519.6 522.58 526.84 520.27 533.85 518.07 540.65 515.7 547.1 513.15 553.08 509.32 561.15 500.56 573.03 495.56 576.45 490.28 578.08 478.33 576.4 471.65 573.55 464.66 570.17 449.32 563.4 441 561.09 435.36 560.59 429.48 560.78 423.38 561.72 417.27 563.73 410.95 566.47 404.42 569.87 397.9 574.06 391.34 578.46 384.77 582.84 378.2 587.36 371.63 591.39 365.08 594.75 358.54 597.62 352.03 599.48 345.56 600.24 339.12 600.17 332.72 598.91 326.41 596.51 320.12 593.27 313.92 589.01 307.83 583.86 301.77 578.12 295.84 571.73 290.04 564.87 284.3 557.76 278.7 550.41 273.3 542.96 267.94 535.57 262.79 528.25 257.85 521.07 252.99 514.13 248.36 507.41 243.99 500.93 239.7 494.75 235.69 488.78 231.98 483.01 228.37 477.52 225.06 472.16 222.09 466.9 217.96 459.31 211.61 444.25 209.45 436.57 207.81 428.83 206.6 412.45 207.03 403.74 207.51 397.86 208.38 391.75 209.62 385.42 210.91 379.08 212.53 372.67 214.45 366.22 216.38 359.78 218.59 353.32 221.06 346.88 223.5 340.47 226.18 334.1 229.08 327.83 231.92 321.62 234.98 315.55 238.22 309.66 241.38 303.88 244.72 298.34 248.23 293.09 253.45 285.62 264.52 272.85 270.36 267.69 276.21 263.28 288.54 256.89 295.02 254.77 301.54 252.94 315.29 249.96 322.53 248.37 329.88 246.05 345.37 239.52 353.53 235.15 359 231.63 364.67 227.9 370.51 224.04 376.33 219.9 382.35 215.83 388.55 211.98 394.75 208.22 401.13 204.97 407.7 202.36"
            stroke-dasharray="6 4" transform="rotate(47.879999999999995, 400, 400)" opacity="0.58"></path>
        <path
            d="M411.38 213.17C417.62 211.13 423.89 209.93 430.16 209.6 436.44 209.86 442.74 211.01 449.03 212.99 461.61 218.5 474.16 226.59 486.49 236.37 498.77 246.4 510.73 256.77 522.12 266.91 533.31 275.86 543.73 284.23 553.08 292.08 561.96 298.75 569.52 305.36 575.47 312.22 580.7 318.53 584.13 325.57 585.6 333.5 586.31 341.31 585.11 350.19 582.03 360.13 580.34 365.1 578.24 370.34 575.76 375.84 573.26 381.33 570.45 387.1 567.35 393.12 564.33 399.14 561.16 405.29 557.89 411.55 554.79 417.81 551.62 424.19 548.44 430.67 542.73 443.69 537.03 457.16 531.42 470.89 526.73 484.65 521.98 498.51 517.1 512.01 512.86 524.99 508.18 536.93 502.96 547.08 498.03 555.67 492.29 561.65 485.69 564.54 479.14 565.57 471.59 563.86 463.07 559.98 454.5 556.28 444.94 552.5 434.47 549.83 429.22 549.68 423.74 550.12 418.06 551.21 412.37 553.23 406.48 555.88 400.4 559.06 394.32 562.94 388.2 567 382.06 571.03 375.94 575.22 369.8 579.01 363.68 582.23 351.48 587.43 339.39 588.83 327.58 586.18 315.88 580.61 304.53 571.49 293.72 559.84 283.09 546.92 273.08 533 263.9 518.95 255 505.39 247.01 492.37 240.12 480.05 233.6 468.59 228.25 457.59 224.25 446.85 220.63 436.58 218.37 426.13 217.58 415.32 217.35 407.22 218.8 390.3 220.46 381.48 221.73 375.54 223.31 369.6 225.18 363.68 227.05 357.77 229.19 351.9 231.57 346.09 236.26 334.58 241.85 323.51 248.17 313.25 254.24 303.37 260.99 294.61 268.31 287.26 275.33 280.49 282.93 275.23 291.05 271.53 298.89 268 307.31 265.51 316.28 263.66 325.04 260.81 334.42 257.63 344.41 253.75 354.26 247.93 364.79 241.18 375.96 233.91 381.52 229.89 387.26 225.98 393.16 222.31 399.06 218.75 405.13 215.65 411.37 213.17"
            stroke-dasharray="7 9" transform="rotate(53.2, 400, 400)" opacity="0.45"></path>
        <path
            d="M414.68 223.98C426.47 220.53 438.31 220.27 450.08 223.12 461.85 227.92 473.53 235.19 484.92 244.2 496.25 253.68 507.21 263.75 517.56 273.85 527.7 283.11 537.06 291.97 545.37 300.37 553.26 307.73 559.89 314.93 565.03 322.19 569.56 328.83 572.45 335.95 573.57 343.74 574.08 351.31 572.88 359.77 569.99 369.18 566.81 378.54 562.26 388.91 556.51 400.31 551.05 411.71 545.07 423.62 538.86 435.9 533.38 448.2 527.81 460.84 522.26 473.58 517.51 486.2 512.65 498.65 507.65 510.46 503.24 521.61 498.44 531.51 493.18 539.54 488.22 546.16 482.57 550.38 476.19 551.91 469.89 552.09 462.72 550.1 454.71 546.51 446.67 543.45 437.75 540.53 428.01 538.71 418.23 539.78 407.65 543.01 396.36 548.25 385.06 555.88 373.64 563.44 362.27 569.69 350.95 574.89 339.73 576.88 328.79 575.37 317.95 571.34 307.46 564.02 297.48 554.15 287.69 542.86 278.49 530.25 270.08 517.11 261.92 504.03 254.63 491.13 248.38 478.71 242.45 466.88 237.63 455.47 234.06 444.42 230.83 433.78 228.86 423.17 228.26 412.5 227.94 401.95 228.93 391.1 231.3 380 233.8 368.89 237.45 358.05 242.04 347.65 246.57 337.35 251.95 327.68 258.02 318.91 263.89 310.43 270.42 303.06 277.49 297 284.29 291.29 291.66 286.86 299.51 283.65 307.11 280.33 315.26 277.71 323.91 275.45 332.36 272.08 341.39 268.3 350.96 263.85 360.41 257.71 370.46 250.86 381.09 243.7 391.67 235.89 402.88 229 414.67 223.98"
            stroke-dasharray="2 7" transform="rotate(58.52, 400, 400)" opacity="0.55"></path>
        <path
            d="M417.5 234.79C428.57 231.45 439.64 230.98 450.58 233.32 461.52 237.42 472.3 243.87 482.74 252.04 493.12 260.84 503.07 270.43 512.39 280.28 521.52 289.6 529.86 298.73 537.19 307.52 544.15 315.45 549.94 323.19 554.34 330.87 558.24 337.96 560.66 345.32 561.5 353.14 561.84 360.69 560.67 368.93 557.99 377.95 555.08 386.89 550.93 396.73 545.67 407.46 540.65 418.19 535.11 429.35 529.28 440.75 524.06 452.14 518.67 463.7 513.24 475.15 508.48 486.38 503.57 497.21 498.52 507.18 493.99 516.47 489.12 524.39 483.85 530.49 478.87 535.4 473.31 538.18 467.13 538.72 461.06 538.37 454.24 536.37 446.69 533.23 439.14 530.86 430.81 528.78 421.75 527.72 412.67 529.22 402.87 532.51 392.43 537.44 381.99 544.43 371.44 551.33 360.96 557.15 350.51 562.24 340.18 564.66 330.12 564.1 320.15 561.43 310.52 555.78 301.4 547.68 292.43 538.13 284.04 527.05 276.4 515.14 268.99 502.97 262.39 490.65 256.76 478.54 251.42 466.76 247.11 455.29 243.95 444.2 241.09 433.41 239.4 422.79 238.97 412.33 238.79 401.96 239.83 391.56 242.14 381.18 244.58 370.8 248.08 360.91 252.47 351.65 256.81 342.45 261.96 334.01 267.77 326.5 273.42 319.18 279.69 312.91 286.48 307.8 293.05 302.82 300.16 298.87 307.71 295.85 315.06 292.49 322.91 289.57 331.21 286.77 339.35 282.87 348.01 278.53 357.14 273.61 366.17 267.25 375.74 260.39 385.81 253.42 395.84 246 406.42 239.52 417.5 234.79"
            stroke-dasharray="9 3" transform="rotate(63.839999999999996, 400, 400)" opacity="0.42"></path>
        <path
            d="M419.75 245.6C430.09 242.39 440.36 241.74 450.45 243.6 460.53 247.03 470.4 252.64 479.89 259.94 489.32 267.95 498.28 276.9 506.61 286.29 514.76 295.44 522.14 304.58 528.56 313.54 534.65 321.85 539.66 330 543.42 338.04 546.76 345.55 548.78 353.2 549.38 361.11 549.6 368.76 548.47 376.9 546.01 385.61 543.37 394.24 539.62 403.57 534.83 413.61 530.25 423.65 525.13 433.95 519.7 444.32 514.76 454.66 509.6 464.96 504.33 474.94 499.62 484.67 494.74 493.8 489.7 501.94 485.11 509.44 480.21 515.58 474.97 520.01 470.01 523.54 464.55 525.25 458.57 525.15 452.7 524.56 446.2 522.75 439.09 520.2 431.99 518.53 424.22 517.24 415.82 516.88 407.41 518.72 398.36 522.03 388.75 526.64 379.15 533 369.46 539.26 359.86 544.61 350.28 549.51 340.83 552.2 331.65 552.39 322.56 550.89 313.8 546.74 305.52 540.32 297.39 532.52 289.8 523.1 282.91 512.65 276.23 501.72 270.31 490.37 265.29 478.98 260.52 467.68 256.7 456.54 253.94 445.71 251.44 435.07 250.01 424.66 249.73 414.52 249.67 404.46 250.74 394.55 252.98 384.86 255.33 375.18 258.67 366.15 262.85 357.87 266.99 349.63 271.89 342.19 277.42 335.68 282.81 329.25 288.81 323.76 295.3 319.25 301.6 314.69 308.41 310.93 315.64 307.83 322.7 304.25 330.22 300.9 338.15 297.55 345.95 293.14 354.21 288.32 362.88 283.03 371.47 276.57 380.54 269.8 390.02 263.08 399.48 256.08 409.41 250.03 419.75 245.6"
            stroke-dasharray="3 7" transform="rotate(69.16, 400, 400)" opacity="0.52"></path>
        <path
            d="M421.36 256.41C430.94 253.34 440.4 252.54 449.63 253.97 458.85 256.76 467.8 261.55 476.36 267.94 484.84 275.09 492.85 283.25 500.23 292.01 507.44 300.74 513.92 309.65 519.5 318.52 524.81 326.97 529.12 335.31 532.3 343.55 535.15 351.36 536.82 359.23 537.25 367.21 537.37 374.96 536.31 383.02 534.07 391.44 531.7 399.8 528.32 408.64 523.99 417.95 519.83 427.27 515.15 436.64 510.11 445.89 505.48 455.09 500.58 464.05 495.53 472.53 490.93 480.75 486.14 488.23 481.17 494.68 474.16 502.91 458.98 511.31 450.54 511.39 444.89 510.81 438.71 509.37 432.01 507.46 425.34 506.49 418.1 505.93 410.33 506.16 402.55 508.28 394.24 511.55 385.44 515.83 376.64 521.58 367.81 527.21 359.07 532.09 350.36 536.72 341.78 539.55 333.48 540.31 325.25 539.75 317.35 536.91 309.9 532.02 302.59 525.9 295.79 518.18 289.65 509.31 283.68 499.85 278.42 489.76 273.98 479.41 269.76 468.98 266.41 458.53 264.02 448.28 261.86 438.12 260.67 428.16 260.54 418.51 260.59 408.91 261.66 399.56 263.82 390.56 266.08 381.55 269.24 373.29 273.18 365.82 277.1 358.36 281.73 351.7 286.96 345.89 292.08 340.08 297.76 335.07 303.91 330.85 309.92 326.47 316.4 322.66 323.28 319.29 330.01 315.39 337.17 311.57 344.7 307.67 352.11 302.83 359.94 297.65 368.13 292.12 376.25 285.67 384.78 279.08 393.67 272.68 402.53 266.15 411.78 260.53 421.36 256.41"
            stroke-dasharray="3 9" transform="rotate(74.48, 400, 400)" opacity="0.39"></path>
        <path
            d="M422.28 267.22C431.08 264.31 439.71 263.39 448.07 264.42 456.43 266.61 464.48 270.61 472.12 276.1 479.69 282.33 486.78 289.61 493.26 297.57 499.59 305.68 505.23 314.11 510.04 322.64 514.63 330.94 518.32 339.23 521 347.44 523.42 355.36 524.81 363.28 525.1 371.22 525.16 378.98 524.18 386.9 522.16 394.99 520.05 403.03 517.03 411.35 513.15 419.91 509.41 428.47 505.14 436.87 500.52 444.98 496.22 453.03 491.62 460.68 486.82 467.71 482.4 474.52 477.75 480.53 472.93 485.53 466.03 491.85 451.2 497.8 443.08 497.64 437.65 497.26 431.79 496.29 425.51 495.06 419.26 494.76 412.54 494.84 405.38 495.57 398.22 497.88 390.6 501.08 382.6 505.02 374.59 510.19 366.59 515.2 358.7 519.59 350.83 523.88 343.12 526.73 335.68 527.88 328.3 528.06 321.23 526.3 314.61 522.76 308.09 518.18 302.06 512.09 296.63 504.83 291.36 496.95 286.73 488.31 282.85 479.24 279.16 469.97 276.25 460.52 274.22 451.14 272.36 441.74 271.4 432.48 271.39 423.5 271.53 414.53 272.6 405.83 274.66 397.51 276.81 389.18 279.78 381.6 283.47 374.78 287.15 367.94 291.49 361.84 296.39 356.49 301.21 351.06 306.55 346.29 312.34 342.13 318.02 337.72 324.13 333.71 330.61 329.98 336.98 325.72 343.74 321.46 350.83 317.09 357.83 311.93 365.19 306.51 372.86 300.89 380.48 294.57 388.44 288.25 396.7 282.24 404.93 276.19 413.48 271.03 422.28 267.22"
            stroke-dasharray="5 9" transform="rotate(79.8, 400, 400)" opacity="0.16"></path>
        <path
            d="M422.48 278.02C430.48 275.3 438.28 274.28 445.78 274.96 453.27 276.61 460.45 279.86 467.2 284.46 473.89 289.75 480.11 296.08 485.74 303.13 491.26 310.43 496.13 318.17 500.24 326.12 504.18 334 507.32 341.96 509.57 349.89 511.61 357.66 512.76 365.42 512.94 373.14 512.97 380.74 512.08 388.39 510.28 396.07 508.43 403.71 505.76 411.45 502.3 419.22 498.97 427 495.12 434.44 490.92 441.45 486.96 448.4 482.69 454.83 478.2 460.59 471.78 468.56 458.26 479.68 451.1 482.52 443.95 484.15 428.27 483.83 419.64 483.05 413.82 483.35 407.6 483.98 401.04 485.11 394.48 487.53 387.56 490.61 380.32 494.21 373.08 498.81 365.89 503.24 358.83 507.13 351.79 511.04 344.91 513.78 338.31 515.17 331.75 515.88 325.51 514.98 319.67 512.57 313.93 509.34 308.63 504.73 303.9 499.01 299.28 492.71 295.25 485.59 291.91 477.93 288.71 470.01 286.22 461.78 284.51 453.46 282.96 445.08 282.19 436.73 282.28 428.56 282.5 420.39 283.56 412.42 285.5 404.79 287.52 397.15 290.3 390.17 293.72 383.87 297.14 377.54 301.17 371.84 305.71 366.74 310.2 361.54 315.18 356.84 320.57 352.58 325.87 348.05 331.59 343.78 337.63 339.68 343.6 335.09 349.92 330.47 356.52 325.77 363.06 320.43 369.92 314.93 377.03 309.35 384.11 303.28 391.48 297.32 399.07 291.75 406.65 286.21 414.47 281.52 422.48 278.02"
            stroke-dasharray="9 8" transform="rotate(85.12, 400, 400)" opacity="0.64"></path>
        <path
            d="M421.94 288.83C429.13 286.3 436.1 285.23 442.76 285.6 449.4 286.77 455.71 289.32 461.61 293.06 467.46 297.43 472.86 302.77 477.71 308.83 482.47 315.21 486.64 322.08 490.13 329.24 493.49 336.45 496.14 343.82 498.01 351.23 499.74 358.57 500.68 365.93 500.81 373.22 500.81 380.45 500.03 387.66 498.45 394.8 496.84 401.92 494.5 409 491.46 415.97 488.52 422.94 485.09 429.46 481.31 435.46 477.71 441.41 473.8 446.79 469.65 451.48 463.63 457.98 450.82 466.82 444.02 469.1 437.21 470.62 422.45 471.35 414.44 471.46 409.05 472.27 403.35 473.34 397.38 474.77 391.42 477.23 385.17 480.15 378.68 483.4 372.2 487.46 365.78 491.31 359.53 494.7 353.29 498.19 347.23 500.75 341.43 502.24 332.94 503.15 317.84 497.74 311.46 491.75 307.47 486.93 304.01 481.29 301.17 475.05 298.43 468.55 296.33 461.64 294.93 454.52 293.64 447.31 293.05 440.01 293.23 432.76 293.5 425.51 294.52 418.36 296.34 411.43 298.22 404.5 300.78 398.1 303.92 392.24 307.07 386.34 310.77 380.93 314.93 375.98 319.07 370.92 323.65 366.2 328.61 361.8 333.51 357.14 338.78 352.64 344.35 348.24 349.87 343.44 355.7 338.6 361.78 333.72 367.82 328.36 374.13 322.94 380.65 317.54 387.15 311.83 393.88 306.31 400.78 301.22 407.67 296.22 414.75 292 421.94 288.83"
            stroke-dasharray="1 10" transform="rotate(90.44000000000001, 400, 400)" opacity="0.56"></path>
        <path
            d="M420.7 299.64C433.45 295.59 445.2 296.6 455.42 301.95 465.49 309.4 473.79 320.02 479.76 332.31 485.35 345.07 488.44 358.58 488.69 371.91 488.64 385.17 485.96 398.28 480.62 410.6 475.58 422.91 468.85 433.17 461.16 440.97 454.11 448.55 446.06 453.51 437.36 455.84 429.11 458.52 419.89 459.71 409.92 460.3 400.08 463.4 389.24 467.54 377.73 472.59 366.23 480.14 355.16 486.06 345.09 489.15 335.13 491.17 326.35 488.97 319.34 483.03 312.61 475.61 307.81 465.4 305.45 453.73 303.44 441.66 303.89 428.95 307.18 416.55 310.66 404.15 316.51 393.17 324.05 383.62 331.52 373.65 340.62 364.37 350.77 355.57 360.78 345.56 371.92 335.37 383.71 325.49 395.44 314.89 407.94 305.69 420.7 299.64"
            stroke-dasharray="6 4" transform="rotate(95.75999999999999, 400, 400)" opacity="0.95"></path>
        <path
            d="M418.78 310.45C429.89 306.72 440 307.13 448.68 311.17 457.25 316.88 464.23 325.44 469.18 335.65 473.87 346.46 476.44 358.16 476.61 369.83 476.59 381.57 474.34 393.13 469.78 403.81 465.45 414.49 459.55 423.21 452.71 429.76 446.33 436.26 439 440.66 431.06 443.1 423.47 446.08 415.05 448.05 406.07 449.58 397.19 453.11 387.57 457.25 377.51 461.78 367.45 468.2 357.9 473.2 349.32 475.95 340.81 478.18 333.4 477.09 327.55 472.95 321.9 467.77 317.95 460.05 316.1 450.71 314.5 441.02 315.03 430.36 318.02 419.47 321.16 408.58 326.37 398.47 333.07 389.26 339.74 379.73 347.85 370.54 356.89 361.7 365.85 352.03 375.79 342.35 386.24 333.24 396.66 323.79 407.67 315.75 418.78 310.45"
            stroke-dasharray="9 3" transform="rotate(101.08, 400, 400)" opacity="0.11"></path>
        <path
            d="M416.26 321.26C425.72 317.89 434.24 317.85 441.48 320.73 448.64 324.87 454.4 331.45 458.45 339.57 462.34 348.27 464.45 357.92 464.58 367.71 464.6 377.62 462.75 387.44 458.94 396.52 455.29 405.59 450.24 413 444.3 418.65 438.68 424.35 432.16 428.48 425.11 431.2 418.29 434.49 410.79 437.09 402.87 439.32 395.03 443.02 386.65 447 378.01 450.97 369.37 456.32 361.3 460.41 354.12 462.73 343.93 464.68 329.86 455.42 326.86 445.34 325.63 437.83 326.21 429.14 328.86 419.81 331.64 410.46 336.18 401.37 342 392.73 347.82 383.88 354.89 375.14 362.75 366.68 370.57 357.74 379.22 348.93 388.27 340.83 397.31 332.66 406.79 325.8 416.26 321.26"
            stroke-dasharray="0 5" transform="rotate(106.4, 400, 400)" opacity="0.30"></path>
        <path
            d="M413.2 332.07C421.04 329.12 428.02 328.76 433.9 330.66 439.72 333.45 444.38 338.22 447.62 344.34 450.77 350.93 452.49 358.46 452.61 366.26 452.67 374.2 451.2 382.19 448.1 389.69 445.11 397.18 440.91 403.44 435.91 408.4 431.11 413.45 425.52 417.42 419.44 420.4 413.53 423.88 407.05 426.87 400.27 429.49 393.55 433.13 386.44 436.78 379.23 440.16 372.01 444.49 365.35 447.71 359.51 449.54 351.23 451.38 340.01 445.26 337.74 437.77 336.83 432.13 337.41 425.26 339.7 417.5 342.08 409.74 345.92 401.84 350.83 394.1 355.76 386.24 361.73 378.35 368.36 370.71 374.98 362.85 382.27 355.21 389.86 348.32 397.46 341.51 405.37 335.84 413.2 332.07"
            stroke-dasharray="7 0" transform="rotate(111.72, 400, 400)" opacity="0.79"></path>
        <path
            d="M409.72 342.88C422.16 338.58 431.65 341.9 436.76 350.18 441.66 359.78 442.13 372.31 437.26 384.23 432.66 396.14 424.11 405.07 414.04 410.89 404.33 418.1 392.72 424.55 381.12 429.35 364.75 437.85 347.66 429.43 350.54 412.87 354.49 400.52 363.06 386.75 373.75 374.01 384.46 361.01 397.29 349.31 409.72 342.88"
            stroke-dasharray="7 8" transform="rotate(117.04, 400, 400)" opacity="0.85"></path>
        <path
            d="M405.93 353.69C418.66 351.04 429.76 367.66 426.42 380.87 423.02 389.76 416.54 397.23 408.83 402.75 401.3 409.09 392.37 414.72 383.62 418.54 371.36 424.56 359.04 418.67 361.38 406.53 364.42 397.34 370.91 386.71 378.96 376.87 387.05 367.08 396.68 358.43 405.93 353.69"
            stroke-dasharray="9 6" transform="rotate(122.36, 400, 400)" opacity="0.85"></path>
        <path
            d="M401.94 364.5C414.14 360.07 420.22 368.19 415.58 380.04 411.2 391.89 398.41 403.06 386.65 407.73 374.88 414.72 368.28 411.46 372.22 399.32 376.4 387.17 389.72 371.11 401.94 364.5"
            stroke-dasharray="9 3" transform="rotate(127.67999999999999, 400, 400)" opacity="0.69"></path>
    </g>
</svg>