<svg id="visual" viewBox="0 0 900 450" width="900" height="450" xmlns="http://www.w3.org/2000/svg" xmlns:xlink="http://www.w3.org/1999/xlink" version="1.1"><rect x="0" y="0" width="900" height="450" fill="#000000"></rect><path d="M0 258L12.5 261.3C25 264.7 50 271.3 75 278.5C100 285.7 125 293.3 150 288.8C175 284.3 200 267.7 225 264.7C250 261.7 275 272.3 300 278.2C325 284 350 285 375 285.7C400 286.3 425 286.7 450 288.8C475 291 500 295 525 293.5C550 292 575 285 600 280.2C625 275.3 650 272.7 675 273.2C700 273.7 725 277.3 750 280C775 282.7 800 284.3 825 284C850 283.7 875 281.3 887.5 280.2L900 279L900 451L887.5 451C875 451 850 451 825 451C800 451 775 451 750 451C725 451 700 451 675 451C650 451 625 451 600 451C575 451 550 451 525 451C500 451 475 451 450 451C425 451 400 451 375 451C350 451 325 451 300 451C275 451 250 451 225 451C200 451 175 451 150 451C125 451 100 451 75 451C50 451 25 451 12.5 451L0 451Z" fill="#012d23"></path><path d="M0 280L12.5 283.3C25 286.7 50 293.3 75 292.7C100 292 125 284 150 287.8C175 291.7 200 307.3 225 310.8C250 314.3 275 305.7 300 300.3C325 295 350 293 375 288.5C400 284 425 277 450 278.8C475 280.7 500 291.3 525 297.8C550 304.3 575 306.7 600 301.2C625 295.7 650 282.3 675 280.5C700 278.7 725 288.3 750 288.5C775 288.7 800 279.3 825 276C850 272.7 875 275.3 887.5 276.7L900 278L900 451L887.5 451C875 451 850 451 825 451C800 451 775 451 750 451C725 451 700 451 675 451C650 451 625 451 600 451C575 451 550 451 525 451C500 451 475 451 450 451C425 451 400 451 375 451C350 451 325 451 300 451C275 451 250 451 225 451C200 451 175 451 150 451C125 451 100 451 75 451C50 451 25 451 12.5 451L0 451Z" fill="#0f2a18"></path><path d="M0 338L12.5 334.7C25 331.3 50 324.7 75 322.7C100 320.7 125 323.3 150 322.2C175 321 200 316 225 310.8C250 305.7 275 300.3 300 304.7C325 309 350 323 375 329.8C400 336.7 425 336.3 450 337.2C475 338 500 340 525 338.3C550 336.7 575 331.3 600 325.2C625 319 650 312 675 309.5C700 307 725 309 750 307.3C775 305.7 800 300.3 825 302.7C850 305 875 315 887.5 320L900 325L900 451L887.5 451C875 451 850 451 825 451C800 451 775 451 750 451C725 451 700 451 675 451C650 451 625 451 600 451C575 451 550 451 525 451C500 451 475 451 450 451C425 451 400 451 375 451C350 451 325 451 300 451C275 451 250 451 225 451C200 451 175 451 150 451C125 451 100 451 75 451C50 451 25 451 12.5 451L0 451Z" fill="#1a270e"></path><path d="M0 355L12.5 350.2C25 345.3 50 335.7 75 332.3C100 329 125 332 150 334.8C175 337.7 200 340.3 225 344.7C250 349 275 355 300 353.3C325 351.7 350 342.3 375 337.7C400 333 425 333 450 331.5C475 330 500 327 525 326C550 325 575 326 600 328C625 330 650 333 675 335.8C700 338.7 725 341.3 750 338C775 334.7 800 325.3 825 321.7C850 318 875 320 887.5 321L900 322L900 451L887.5 451C875 451 850 451 825 451C800 451 775 451 750 451C725 451 700 451 675 451C650 451 625 451 600 451C575 451 550 451 525 451C500 451 475 451 450 451C425 451 400 451 375 451C350 451 325 451 300 451C275 451 250 451 225 451C200 451 175 451 150 451C125 451 100 451 75 451C50 451 25 451 12.5 451L0 451Z" fill="#222203"></path><path d="M0 356L12.5 355.5C25 355 50 354 75 357.7C100 361.3 125 369.7 150 368.2C175 366.7 200 355.3 225 352.7C250 350 275 356 300 361.2C325 366.3 350 370.7 375 371.8C400 373 425 371 450 368.7C475 366.3 500 363.7 525 363C550 362.3 575 363.7 600 364.8C625 366 650 367 675 363.8C700 360.7 725 353.3 750 351C775 348.7 800 351.3 825 351.5C850 351.7 875 349.3 887.5 348.2L900 347L900 451L887.5 451C875 451 850 451 825 451C800 451 775 451 750 451C725 451 700 451 675 451C650 451 625 451 600 451C575 451 550 451 525 451C500 451 475 451 450 451C425 451 400 451 375 451C350 451 325 451 300 451C275 451 250 451 225 451C200 451 175 451 150 451C125 451 100 451 75 451C50 451 25 451 12.5 451L0 451Z" fill="#2a1d00"></path><path d="M0 369L12.5 371.3C25 373.7 50 378.3 75 381.2C100 384 125 385 150 387C175 389 200 392 225 394.3C250 396.7 275 398.3 300 395C325 391.7 350 383.3 375 383.5C400 383.7 425 392.3 450 394.5C475 396.7 500 392.3 525 387.8C550 383.3 575 378.7 600 378C625 377.3 650 380.7 675 385C700 389.3 725 394.7 750 391.3C775 388 800 376 825 372.5C850 369 875 374 887.5 376.5L900 379L900 451L887.5 451C875 451 850 451 825 451C800 451 775 451 750 451C725 451 700 451 675 451C650 451 625 451 600 451C575 451 550 451 525 451C500 451 475 451 450 451C425 451 400 451 375 451C350 451 325 451 300 451C275 451 250 451 225 451C200 451 175 451 150 451C125 451 100 451 75 451C50 451 25 451 12.5 451L0 451Z" fill="#311600"></path><path d="M0 399L12.5 398.7C25 398.3 50 397.7 75 398.3C100 399 125 401 150 404.7C175 408.3 200 413.7 225 415.3C250 417 275 415 300 411.2C325 407.3 350 401.7 375 402C400 402.3 425 408.7 450 411.8C475 415 500 415 525 415.5C550 416 575 417 600 416.3C625 415.7 650 413.3 675 410C700 406.7 725 402.3 750 399.8C775 397.3 800 396.7 825 396.2C850 395.7 875 395.3 887.5 395.2L900 395L900 451L887.5 451C875 451 850 451 825 451C800 451 775 451 750 451C725 451 700 451 675 451C650 451 625 451 600 451C575 451 550 451 525 451C500 451 475 451 450 451C425 451 400 451 375 451C350 451 325 451 300 451C275 451 250 451 225 451C200 451 175 451 150 451C125 451 100 451 75 451C50 451 25 451 12.5 451L0 451Z" fill="#370d00"></path><path d="M0 428L12.5 426.7C25 425.3 50 422.7 75 423.2C100 423.7 125 427.3 150 426.5C175 425.7 200 420.3 225 417C250 413.7 275 412.3 300 414.3C325 416.3 350 421.7 375 424C400 426.3 425 425.7 450 425.2C475 424.7 500 424.3 525 422.8C550 421.3 575 418.7 600 419.8C625 421 650 426 675 425.2C700 424.3 725 417.7 750 414.7C775 411.7 800 412.3 825 416.8C850 421.3 875 429.7 887.5 433.8L900 438L900 451L887.5 451C875 451 850 451 825 451C800 451 775 451 750 451C725 451 700 451 675 451C650 451 625 451 600 451C575 451 550 451 525 451C500 451 475 451 450 451C425 451 400 451 375 451C350 451 325 451 300 451C275 451 250 451 225 451C200 451 175 451 150 451C125 451 100 451 75 451C50 451 25 451 12.5 451L0 451Z" fill="#3b0000"></path></svg>