<svg id="visual" viewBox="0 0 900 450" width="900" height="450" xmlns="http://www.w3.org/2000/svg" xmlns:xlink="http://www.w3.org/1999/xlink" version="1.1"><rect x="0" y="0" width="900" height="450" fill="#ffffff"></rect><path d="M0 250L12.5 254.2C25 258.3 50 266.7 75 275.2C100 283.7 125 292.3 150 287.5C175 282.7 200 264.3 225 257.5C250 250.7 275 255.3 300 263.5C325 271.7 350 283.3 375 286.5C400 289.7 425 284.3 450 281.7C475 279 500 279 525 282.7C550 286.3 575 293.7 600 288C625 282.3 650 263.7 675 257.2C700 250.7 725 256.3 750 258.5C775 260.7 800 259.3 825 262.5C850 265.7 875 273.3 887.5 277.2L900 281L900 451L887.5 451C875 451 850 451 825 451C800 451 775 451 750 451C725 451 700 451 675 451C650 451 625 451 600 451C575 451 550 451 525 451C500 451 475 451 450 451C425 451 400 451 375 451C350 451 325 451 300 451C275 451 250 451 225 451C200 451 175 451 150 451C125 451 100 451 75 451C50 451 25 451 12.5 451L0 451Z" fill="#e4e5c2"></path><path d="M0 298L12.5 301.8C25 305.7 50 313.3 75 310.8C100 308.3 125 295.7 150 293.7C175 291.7 200 300.3 225 306.5C250 312.7 275 316.3 300 318.3C325 320.3 350 320.7 375 315.5C400 310.3 425 299.7 450 294.2C475 288.7 500 288.3 525 287.2C550 286 575 284 600 284.3C625 284.7 650 287.3 675 292.7C700 298 725 306 750 304.8C775 303.7 800 293.3 825 286.5C850 279.7 875 276.3 887.5 274.7L900 273L900 451L887.5 451C875 451 850 451 825 451C800 451 775 451 750 451C725 451 700 451 675 451C650 451 625 451 600 451C575 451 550 451 525 451C500 451 475 451 450 451C425 451 400 451 375 451C350 451 325 451 300 451C275 451 250 451 225 451C200 451 175 451 150 451C125 451 100 451 75 451C50 451 25 451 12.5 451L0 451Z" fill="#e0cba3"></path><path d="M0 326L12.5 328.8C25 331.7 50 337.3 75 334.3C100 331.3 125 319.7 150 314C175 308.3 200 308.7 225 307.3C250 306 275 303 300 304C325 305 350 310 375 311.7C400 313.3 425 311.7 450 309.2C475 306.7 500 303.3 525 307C550 310.7 575 321.3 600 326.8C625 332.3 650 332.7 675 328.5C700 324.3 725 315.7 750 310.3C775 305 800 303 825 303.3C850 303.7 875 306.3 887.5 307.7L900 309L900 451L887.5 451C875 451 850 451 825 451C800 451 775 451 750 451C725 451 700 451 675 451C650 451 625 451 600 451C575 451 550 451 525 451C500 451 475 451 450 451C425 451 400 451 375 451C350 451 325 451 300 451C275 451 250 451 225 451C200 451 175 451 150 451C125 451 100 451 75 451C50 451 25 451 12.5 451L0 451Z" fill="#ddb08b"></path><path d="M0 320L12.5 323.7C25 327.3 50 334.7 75 338.3C100 342 125 342 150 345C175 348 200 354 225 355.8C250 357.7 275 355.3 300 350.3C325 345.3 350 337.7 375 331.3C400 325 425 320 450 323.5C475 327 500 339 525 344C550 349 575 347 600 342.7C625 338.3 650 331.7 675 329.5C700 327.3 725 329.7 750 331.7C775 333.7 800 335.3 825 333.7C850 332 875 327 887.5 324.5L900 322L900 451L887.5 451C875 451 850 451 825 451C800 451 775 451 750 451C725 451 700 451 675 451C650 451 625 451 600 451C575 451 550 451 525 451C500 451 475 451 450 451C425 451 400 451 375 451C350 451 325 451 300 451C275 451 250 451 225 451C200 451 175 451 150 451C125 451 100 451 75 451C50 451 25 451 12.5 451L0 451Z" fill="#d9937e"></path><path d="M0 344L12.5 348.2C25 352.3 50 360.7 75 363.2C100 365.7 125 362.3 150 361.7C175 361 200 363 225 360.7C250 358.3 275 351.7 300 350C325 348.3 350 351.7 375 354.7C400 357.7 425 360.3 450 364.8C475 369.3 500 375.7 525 376.8C550 378 575 374 600 369.5C625 365 650 360 675 358.3C700 356.7 725 358.3 750 355.8C775 353.3 800 346.7 825 349C850 351.3 875 362.7 887.5 368.3L900 374L900 451L887.5 451C875 451 850 451 825 451C800 451 775 451 750 451C725 451 700 451 675 451C650 451 625 451 600 451C575 451 550 451 525 451C500 451 475 451 450 451C425 451 400 451 375 451C350 451 325 451 300 451C275 451 250 451 225 451C200 451 175 451 150 451C125 451 100 451 75 451C50 451 25 451 12.5 451L0 451Z" fill="#cf777b"></path><path d="M0 363L12.5 364.5C25 366 50 369 75 373.8C100 378.7 125 385.3 150 384C175 382.7 200 373.3 225 369.3C250 365.3 275 366.7 300 368.8C325 371 350 374 375 374C400 374 425 371 450 374.3C475 377.7 500 387.3 525 390C550 392.7 575 388.3 600 388.3C625 388.3 650 392.7 675 390.8C700 389 725 381 750 377.5C775 374 800 375 825 378.5C850 382 875 388 887.5 391L900 394L900 451L887.5 451C875 451 850 451 825 451C800 451 775 451 750 451C725 451 700 451 675 451C650 451 625 451 600 451C575 451 550 451 525 451C500 451 475 451 450 451C425 451 400 451 375 451C350 451 325 451 300 451C275 451 250 451 225 451C200 451 175 451 150 451C125 451 100 451 75 451C50 451 25 451 12.5 451L0 451Z" fill="#bd5e80"></path><path d="M0 401L12.5 399.7C25 398.3 50 395.7 75 397C100 398.3 125 403.7 150 407.7C175 411.7 200 414.3 225 414.5C250 414.7 275 412.3 300 409C325 405.7 350 401.3 375 399.8C400 398.3 425 399.7 450 403.2C475 406.7 500 412.3 525 413.5C550 414.7 575 411.3 600 410.3C625 409.3 650 410.7 675 411.7C700 412.7 725 413.3 750 413C775 412.7 800 411.3 825 408.7C850 406 875 402 887.5 400L900 398L900 451L887.5 451C875 451 850 451 825 451C800 451 775 451 750 451C725 451 700 451 675 451C650 451 625 451 600 451C575 451 550 451 525 451C500 451 475 451 450 451C425 451 400 451 375 451C350 451 325 451 300 451C275 451 250 451 225 451C200 451 175 451 150 451C125 451 100 451 75 451C50 451 25 451 12.5 451L0 451Z" fill="#a04c8a"></path><path d="M0 435L12.5 431.3C25 427.7 50 420.3 75 419C100 417.7 125 422.3 150 426C175 429.7 200 432.3 225 433.8C250 435.3 275 435.7 300 432.8C325 430 350 424 375 424.3C400 424.7 425 431.3 450 430.8C475 430.3 500 422.7 525 419.3C550 416 575 417 600 417.8C625 418.7 650 419.3 675 419.5C700 419.7 725 419.3 750 420C775 420.7 800 422.3 825 425.7C850 429 875 434 887.5 436.5L900 439L900 451L887.5 451C875 451 850 451 825 451C800 451 775 451 750 451C725 451 700 451 675 451C650 451 625 451 600 451C575 451 550 451 525 451C500 451 475 451 450 451C425 451 400 451 375 451C350 451 325 451 300 451C275 451 250 451 225 451C200 451 175 451 150 451C125 451 100 451 75 451C50 451 25 451 12.5 451L0 451Z" fill="#724394"></path></svg>