<svg id="visual" viewBox="0 0 900 450" width="900" height="450" xmlns="http://www.w3.org/2000/svg" xmlns:xlink="http://www.w3.org/1999/xlink" version="1.1"><rect x="0" y="0" width="900" height="450" fill="#000000"></rect><path d="M0 162L12.5 160.7C25 159.3 50 156.7 75 158.8C100 161 125 168 150 173.8C175 179.7 200 184.3 225 186.5C250 188.7 275 188.3 300 190.3C325 192.3 350 196.7 375 191.8C400 187 425 173 450 171.3C475 169.7 500 180.3 525 179.8C550 179.3 575 167.7 600 166.7C625 165.7 650 175.3 675 174.3C700 173.3 725 161.7 750 161.7C775 161.7 800 173.3 825 181.2C850 189 875 193 887.5 195L900 197L900 0L887.5 0C875 0 850 0 825 0C800 0 775 0 750 0C725 0 700 0 675 0C650 0 625 0 600 0C575 0 550 0 525 0C500 0 475 0 450 0C425 0 400 0 375 0C350 0 325 0 300 0C275 0 250 0 225 0C200 0 175 0 150 0C125 0 100 0 75 0C50 0 25 0 12.5 0L0 0Z" fill="#012d23"></path><path d="M0 126L12.5 133.8C25 141.7 50 157.3 75 157.3C100 157.3 125 141.7 150 142C175 142.3 200 158.7 225 159.3C250 160 275 145 300 137.8C325 130.7 350 131.3 375 136.8C400 142.3 425 152.7 450 152.7C475 152.7 500 142.3 525 141.2C550 140 575 148 600 152.8C625 157.7 650 159.3 675 154.3C700 149.3 725 137.7 750 135.7C775 133.7 800 141.3 825 141.7C850 142 875 135 887.5 131.5L900 128L900 0L887.5 0C875 0 850 0 825 0C800 0 775 0 750 0C725 0 700 0 675 0C650 0 625 0 600 0C575 0 550 0 525 0C500 0 475 0 450 0C425 0 400 0 375 0C350 0 325 0 300 0C275 0 250 0 225 0C200 0 175 0 150 0C125 0 100 0 75 0C50 0 25 0 12.5 0L0 0Z" fill="#0f2a18"></path><path d="M0 151L12.5 144.3C25 137.7 50 124.3 75 122.8C100 121.3 125 131.7 150 137.7C175 143.7 200 145.3 225 140.5C250 135.7 275 124.3 300 125.2C325 126 350 139 375 140.2C400 141.3 425 130.7 450 130.5C475 130.3 500 140.7 525 142C550 143.3 575 135.7 600 133.7C625 131.7 650 135.3 675 134.3C700 133.3 725 127.7 750 125.7C775 123.7 800 125.3 825 123C850 120.7 875 114.3 887.5 111.2L900 108L900 0L887.5 0C875 0 850 0 825 0C800 0 775 0 750 0C725 0 700 0 675 0C650 0 625 0 600 0C575 0 550 0 525 0C500 0 475 0 450 0C425 0 400 0 375 0C350 0 325 0 300 0C275 0 250 0 225 0C200 0 175 0 150 0C125 0 100 0 75 0C50 0 25 0 12.5 0L0 0Z" fill="#1a270e"></path><path d="M0 130L12.5 125C25 120 50 110 75 105.2C100 100.3 125 100.7 150 104.3C175 108 200 115 225 120C250 125 275 128 300 122C325 116 350 101 375 93.8C400 86.7 425 87.3 450 87.7C475 88 500 88 525 88.7C550 89.3 575 90.7 600 92.3C625 94 650 96 675 101.7C700 107.3 725 116.7 750 119.5C775 122.3 800 118.7 825 116.8C850 115 875 115 887.5 115L900 115L900 0L887.5 0C875 0 850 0 825 0C800 0 775 0 750 0C725 0 700 0 675 0C650 0 625 0 600 0C575 0 550 0 525 0C500 0 475 0 450 0C425 0 400 0 375 0C350 0 325 0 300 0C275 0 250 0 225 0C200 0 175 0 150 0C125 0 100 0 75 0C50 0 25 0 12.5 0L0 0Z" fill="#222203"></path><path d="M0 106L12.5 102.3C25 98.7 50 91.3 75 87.7C100 84 125 84 150 82.5C175 81 200 78 225 77.5C250 77 275 79 300 80C325 81 350 81 375 84.3C400 87.7 425 94.3 450 93C475 91.7 500 82.3 525 78C550 73.7 575 74.3 600 77.8C625 81.3 650 87.7 675 89.7C700 91.7 725 89.3 750 88.5C775 87.7 800 88.3 825 87.8C850 87.3 875 85.7 887.5 84.8L900 84L900 0L887.5 0C875 0 850 0 825 0C800 0 775 0 750 0C725 0 700 0 675 0C650 0 625 0 600 0C575 0 550 0 525 0C500 0 475 0 450 0C425 0 400 0 375 0C350 0 325 0 300 0C275 0 250 0 225 0C200 0 175 0 150 0C125 0 100 0 75 0C50 0 25 0 12.5 0L0 0Z" fill="#2a1d00"></path><path d="M0 57L12.5 58.8C25 60.7 50 64.3 75 63.7C100 63 125 58 150 58.2C175 58.3 200 63.7 225 67.2C250 70.7 275 72.3 300 73.2C325 74 350 74 375 72.8C400 71.7 425 69.3 450 66.3C475 63.3 500 59.7 525 61.7C550 63.7 575 71.3 600 70C625 68.7 650 58.3 675 58.3C700 58.3 725 68.7 750 70.2C775 71.7 800 64.3 825 62C850 59.7 875 62.3 887.5 63.7L900 65L900 0L887.5 0C875 0 850 0 825 0C800 0 775 0 750 0C725 0 700 0 675 0C650 0 625 0 600 0C575 0 550 0 525 0C500 0 475 0 450 0C425 0 400 0 375 0C350 0 325 0 300 0C275 0 250 0 225 0C200 0 175 0 150 0C125 0 100 0 75 0C50 0 25 0 12.5 0L0 0Z" fill="#311600"></path><path d="M0 29L12.5 29.3C25 29.7 50 30.3 75 34.3C100 38.3 125 45.7 150 50C175 54.3 200 55.7 225 54C250 52.3 275 47.7 300 47.3C325 47 350 51 375 49C400 47 425 39 450 36.3C475 33.7 500 36.3 525 37.2C550 38 575 37 600 40.8C625 44.7 650 53.3 675 54.8C700 56.3 725 50.7 750 48.5C775 46.3 800 47.7 825 45.2C850 42.7 875 36.3 887.5 33.2L900 30L900 0L887.5 0C875 0 850 0 825 0C800 0 775 0 750 0C725 0 700 0 675 0C650 0 625 0 600 0C575 0 550 0 525 0C500 0 475 0 450 0C425 0 400 0 375 0C350 0 325 0 300 0C275 0 250 0 225 0C200 0 175 0 150 0C125 0 100 0 75 0C50 0 25 0 12.5 0L0 0Z" fill="#370d00"></path><path d="M0 38L12.5 35.8C25 33.7 50 29.3 75 26.8C100 24.3 125 23.7 150 26C175 28.3 200 33.7 225 34.3C250 35 275 31 300 30.5C325 30 350 33 375 30.5C400 28 425 20 450 19C475 18 500 24 525 27.8C550 31.7 575 33.3 600 31C625 28.7 650 22.3 675 20C700 17.7 725 19.3 750 18.7C775 18 800 15 825 15C850 15 875 18 887.5 19.5L900 21L900 0L887.5 0C875 0 850 0 825 0C800 0 775 0 750 0C725 0 700 0 675 0C650 0 625 0 600 0C575 0 550 0 525 0C500 0 475 0 450 0C425 0 400 0 375 0C350 0 325 0 300 0C275 0 250 0 225 0C200 0 175 0 150 0C125 0 100 0 75 0C50 0 25 0 12.5 0L0 0Z" fill="#3b0000"></path></svg>